G04 #@! TF.GenerationSoftware,KiCad,Pcbnew,(5.1.2)-2*
G04 #@! TF.CreationDate,2019-09-13T01:35:51-05:00*
G04 #@! TF.ProjectId,breadboard_power,62726561-6462-46f6-9172-645f706f7765,rev?*
G04 #@! TF.SameCoordinates,Original*
G04 #@! TF.FileFunction,Soldermask,Bot*
G04 #@! TF.FilePolarity,Negative*
%FSLAX46Y46*%
G04 Gerber Fmt 4.6, Leading zero omitted, Abs format (unit mm)*
G04 Created by KiCad (PCBNEW (5.1.2)-2) date 2019-09-13 01:35:51*
%MOMM*%
%LPD*%
G04 APERTURE LIST*
%ADD10C,0.100000*%
G04 APERTURE END LIST*
D10*
G36*
X44027338Y-42335738D02*
G01*
X44200373Y-42407412D01*
X44356100Y-42511465D01*
X44488535Y-42643900D01*
X44592588Y-42799627D01*
X44664262Y-42972662D01*
X44700800Y-43156354D01*
X44700800Y-43343646D01*
X44664262Y-43527338D01*
X44592588Y-43700373D01*
X44488535Y-43856100D01*
X44356100Y-43988535D01*
X44200373Y-44092588D01*
X44027338Y-44164262D01*
X43843646Y-44200800D01*
X43656354Y-44200800D01*
X43472662Y-44164262D01*
X43299627Y-44092588D01*
X43143900Y-43988535D01*
X43011465Y-43856100D01*
X42907412Y-43700373D01*
X42835738Y-43527338D01*
X42799200Y-43343646D01*
X42799200Y-43156354D01*
X42835738Y-42972662D01*
X42907412Y-42799627D01*
X43011465Y-42643900D01*
X43143900Y-42511465D01*
X43299627Y-42407412D01*
X43472662Y-42335738D01*
X43656354Y-42299200D01*
X43843646Y-42299200D01*
X44027338Y-42335738D01*
X44027338Y-42335738D01*
G37*
G36*
X44700800Y-41660800D02*
G01*
X42799200Y-41660800D01*
X42799200Y-39759200D01*
X44700800Y-39759200D01*
X44700800Y-41660800D01*
X44700800Y-41660800D01*
G37*
G36*
X53144014Y-38201110D02*
G01*
X53389843Y-38302936D01*
X53611086Y-38450766D01*
X53799234Y-38638914D01*
X53947064Y-38860157D01*
X54048890Y-39105986D01*
X54100800Y-39366958D01*
X54100800Y-39633042D01*
X54048890Y-39894014D01*
X53947064Y-40139843D01*
X53799234Y-40361086D01*
X53611086Y-40549234D01*
X53389843Y-40697064D01*
X53144014Y-40798890D01*
X52883042Y-40850800D01*
X52616958Y-40850800D01*
X52355986Y-40798890D01*
X52110157Y-40697064D01*
X51888914Y-40549234D01*
X51700766Y-40361086D01*
X51552936Y-40139843D01*
X51451110Y-39894014D01*
X51399200Y-39633042D01*
X51399200Y-39366958D01*
X51451110Y-39105986D01*
X51552936Y-38860157D01*
X51700766Y-38638914D01*
X51888914Y-38450766D01*
X52110157Y-38302936D01*
X52355986Y-38201110D01*
X52616958Y-38149200D01*
X52883042Y-38149200D01*
X53144014Y-38201110D01*
X53144014Y-38201110D01*
G37*
G36*
X57844014Y-35201110D02*
G01*
X58089843Y-35302936D01*
X58311086Y-35450766D01*
X58499234Y-35638914D01*
X58647064Y-35860157D01*
X58748890Y-36105986D01*
X58800800Y-36366958D01*
X58800800Y-36633042D01*
X58748890Y-36894014D01*
X58647064Y-37139843D01*
X58499234Y-37361086D01*
X58311086Y-37549234D01*
X58089843Y-37697064D01*
X57844014Y-37798890D01*
X57583042Y-37850800D01*
X57316958Y-37850800D01*
X57055986Y-37798890D01*
X56810157Y-37697064D01*
X56588914Y-37549234D01*
X56400766Y-37361086D01*
X56252936Y-37139843D01*
X56151110Y-36894014D01*
X56099200Y-36633042D01*
X56099200Y-36366958D01*
X56151110Y-36105986D01*
X56252936Y-35860157D01*
X56400766Y-35638914D01*
X56588914Y-35450766D01*
X56810157Y-35302936D01*
X57055986Y-35201110D01*
X57316958Y-35149200D01*
X57583042Y-35149200D01*
X57844014Y-35201110D01*
X57844014Y-35201110D01*
G37*
G36*
X54100800Y-34850800D02*
G01*
X51399200Y-34850800D01*
X51399200Y-32149200D01*
X54100800Y-32149200D01*
X54100800Y-34850800D01*
X54100800Y-34850800D01*
G37*
G36*
X76716584Y-27652233D02*
G01*
X76716587Y-27652234D01*
X76716588Y-27652234D01*
X76886389Y-27703743D01*
X76933861Y-27729117D01*
X77042881Y-27787389D01*
X77180044Y-27899956D01*
X77292611Y-28037119D01*
X77350883Y-28146139D01*
X77376257Y-28193611D01*
X77427766Y-28363412D01*
X77427767Y-28363416D01*
X77445159Y-28540000D01*
X77427767Y-28716584D01*
X77427766Y-28716587D01*
X77427766Y-28716588D01*
X77376257Y-28886389D01*
X77376256Y-28886390D01*
X77292611Y-29042881D01*
X77180044Y-29180044D01*
X77042881Y-29292611D01*
X76933861Y-29350883D01*
X76886389Y-29376257D01*
X76716588Y-29427766D01*
X76716587Y-29427766D01*
X76716584Y-29427767D01*
X76584255Y-29440800D01*
X76495745Y-29440800D01*
X76363416Y-29427767D01*
X76363413Y-29427766D01*
X76363412Y-29427766D01*
X76193611Y-29376257D01*
X76146139Y-29350883D01*
X76037119Y-29292611D01*
X75899956Y-29180044D01*
X75787389Y-29042881D01*
X75703744Y-28886390D01*
X75703743Y-28886389D01*
X75652234Y-28716588D01*
X75652234Y-28716587D01*
X75652233Y-28716584D01*
X75634841Y-28540000D01*
X75652233Y-28363416D01*
X75652234Y-28363412D01*
X75703743Y-28193611D01*
X75729117Y-28146139D01*
X75787389Y-28037119D01*
X75899956Y-27899956D01*
X76037119Y-27787389D01*
X76146139Y-27729117D01*
X76193611Y-27703743D01*
X76363412Y-27652234D01*
X76363413Y-27652234D01*
X76363416Y-27652233D01*
X76495745Y-27639200D01*
X76584255Y-27639200D01*
X76716584Y-27652233D01*
X76716584Y-27652233D01*
G37*
G36*
X74176584Y-27652233D02*
G01*
X74176587Y-27652234D01*
X74176588Y-27652234D01*
X74346389Y-27703743D01*
X74393861Y-27729117D01*
X74502881Y-27787389D01*
X74640044Y-27899956D01*
X74752611Y-28037119D01*
X74810883Y-28146139D01*
X74836257Y-28193611D01*
X74887766Y-28363412D01*
X74887767Y-28363416D01*
X74905159Y-28540000D01*
X74887767Y-28716584D01*
X74887766Y-28716587D01*
X74887766Y-28716588D01*
X74836257Y-28886389D01*
X74836256Y-28886390D01*
X74752611Y-29042881D01*
X74640044Y-29180044D01*
X74502881Y-29292611D01*
X74393861Y-29350883D01*
X74346389Y-29376257D01*
X74176588Y-29427766D01*
X74176587Y-29427766D01*
X74176584Y-29427767D01*
X74044255Y-29440800D01*
X73955745Y-29440800D01*
X73823416Y-29427767D01*
X73823413Y-29427766D01*
X73823412Y-29427766D01*
X73653611Y-29376257D01*
X73606139Y-29350883D01*
X73497119Y-29292611D01*
X73359956Y-29180044D01*
X73247389Y-29042881D01*
X73163744Y-28886390D01*
X73163743Y-28886389D01*
X73112234Y-28716588D01*
X73112234Y-28716587D01*
X73112233Y-28716584D01*
X73094841Y-28540000D01*
X73112233Y-28363416D01*
X73112234Y-28363412D01*
X73163743Y-28193611D01*
X73189117Y-28146139D01*
X73247389Y-28037119D01*
X73359956Y-27899956D01*
X73497119Y-27787389D01*
X73606139Y-27729117D01*
X73653611Y-27703743D01*
X73823412Y-27652234D01*
X73823413Y-27652234D01*
X73823416Y-27652233D01*
X73955745Y-27639200D01*
X74044255Y-27639200D01*
X74176584Y-27652233D01*
X74176584Y-27652233D01*
G37*
G36*
X29636584Y-27652233D02*
G01*
X29636587Y-27652234D01*
X29636588Y-27652234D01*
X29806389Y-27703743D01*
X29853861Y-27729117D01*
X29962881Y-27787389D01*
X30100044Y-27899956D01*
X30212611Y-28037119D01*
X30270883Y-28146139D01*
X30296257Y-28193611D01*
X30347766Y-28363412D01*
X30347767Y-28363416D01*
X30365159Y-28540000D01*
X30347767Y-28716584D01*
X30347766Y-28716587D01*
X30347766Y-28716588D01*
X30296257Y-28886389D01*
X30296256Y-28886390D01*
X30212611Y-29042881D01*
X30100044Y-29180044D01*
X29962881Y-29292611D01*
X29853861Y-29350883D01*
X29806389Y-29376257D01*
X29636588Y-29427766D01*
X29636587Y-29427766D01*
X29636584Y-29427767D01*
X29504255Y-29440800D01*
X29415745Y-29440800D01*
X29283416Y-29427767D01*
X29283413Y-29427766D01*
X29283412Y-29427766D01*
X29113611Y-29376257D01*
X29066139Y-29350883D01*
X28957119Y-29292611D01*
X28819956Y-29180044D01*
X28707389Y-29042881D01*
X28623744Y-28886390D01*
X28623743Y-28886389D01*
X28572234Y-28716588D01*
X28572234Y-28716587D01*
X28572233Y-28716584D01*
X28554841Y-28540000D01*
X28572233Y-28363416D01*
X28572234Y-28363412D01*
X28623743Y-28193611D01*
X28649117Y-28146139D01*
X28707389Y-28037119D01*
X28819956Y-27899956D01*
X28957119Y-27787389D01*
X29066139Y-27729117D01*
X29113611Y-27703743D01*
X29283412Y-27652234D01*
X29283413Y-27652234D01*
X29283416Y-27652233D01*
X29415745Y-27639200D01*
X29504255Y-27639200D01*
X29636584Y-27652233D01*
X29636584Y-27652233D01*
G37*
G36*
X32176584Y-27652233D02*
G01*
X32176587Y-27652234D01*
X32176588Y-27652234D01*
X32346389Y-27703743D01*
X32393861Y-27729117D01*
X32502881Y-27787389D01*
X32640044Y-27899956D01*
X32752611Y-28037119D01*
X32810883Y-28146139D01*
X32836257Y-28193611D01*
X32887766Y-28363412D01*
X32887767Y-28363416D01*
X32905159Y-28540000D01*
X32887767Y-28716584D01*
X32887766Y-28716587D01*
X32887766Y-28716588D01*
X32836257Y-28886389D01*
X32836256Y-28886390D01*
X32752611Y-29042881D01*
X32640044Y-29180044D01*
X32502881Y-29292611D01*
X32393861Y-29350883D01*
X32346389Y-29376257D01*
X32176588Y-29427766D01*
X32176587Y-29427766D01*
X32176584Y-29427767D01*
X32044255Y-29440800D01*
X31955745Y-29440800D01*
X31823416Y-29427767D01*
X31823413Y-29427766D01*
X31823412Y-29427766D01*
X31653611Y-29376257D01*
X31606139Y-29350883D01*
X31497119Y-29292611D01*
X31359956Y-29180044D01*
X31247389Y-29042881D01*
X31163744Y-28886390D01*
X31163743Y-28886389D01*
X31112234Y-28716588D01*
X31112234Y-28716587D01*
X31112233Y-28716584D01*
X31094841Y-28540000D01*
X31112233Y-28363416D01*
X31112234Y-28363412D01*
X31163743Y-28193611D01*
X31189117Y-28146139D01*
X31247389Y-28037119D01*
X31359956Y-27899956D01*
X31497119Y-27787389D01*
X31606139Y-27729117D01*
X31653611Y-27703743D01*
X31823412Y-27652234D01*
X31823413Y-27652234D01*
X31823416Y-27652233D01*
X31955745Y-27639200D01*
X32044255Y-27639200D01*
X32176584Y-27652233D01*
X32176584Y-27652233D01*
G37*
G36*
X30360800Y-26900800D02*
G01*
X28559200Y-26900800D01*
X28559200Y-25099200D01*
X30360800Y-25099200D01*
X30360800Y-26900800D01*
X30360800Y-26900800D01*
G37*
G36*
X32176584Y-25112233D02*
G01*
X32176587Y-25112234D01*
X32176588Y-25112234D01*
X32346389Y-25163743D01*
X32393861Y-25189117D01*
X32502881Y-25247389D01*
X32640044Y-25359956D01*
X32752611Y-25497119D01*
X32810883Y-25606139D01*
X32836257Y-25653611D01*
X32887766Y-25823412D01*
X32887767Y-25823416D01*
X32905159Y-26000000D01*
X32887767Y-26176584D01*
X32887766Y-26176587D01*
X32887766Y-26176588D01*
X32836257Y-26346389D01*
X32836256Y-26346390D01*
X32752611Y-26502881D01*
X32640044Y-26640044D01*
X32502881Y-26752611D01*
X32393861Y-26810883D01*
X32346389Y-26836257D01*
X32176588Y-26887766D01*
X32176587Y-26887766D01*
X32176584Y-26887767D01*
X32044255Y-26900800D01*
X31955745Y-26900800D01*
X31823416Y-26887767D01*
X31823413Y-26887766D01*
X31823412Y-26887766D01*
X31653611Y-26836257D01*
X31606139Y-26810883D01*
X31497119Y-26752611D01*
X31359956Y-26640044D01*
X31247389Y-26502881D01*
X31163744Y-26346390D01*
X31163743Y-26346389D01*
X31112234Y-26176588D01*
X31112234Y-26176587D01*
X31112233Y-26176584D01*
X31094841Y-26000000D01*
X31112233Y-25823416D01*
X31112234Y-25823412D01*
X31163743Y-25653611D01*
X31189117Y-25606139D01*
X31247389Y-25497119D01*
X31359956Y-25359956D01*
X31497119Y-25247389D01*
X31606139Y-25189117D01*
X31653611Y-25163743D01*
X31823412Y-25112234D01*
X31823413Y-25112234D01*
X31823416Y-25112233D01*
X31955745Y-25099200D01*
X32044255Y-25099200D01*
X32176584Y-25112233D01*
X32176584Y-25112233D01*
G37*
G36*
X74900800Y-26900800D02*
G01*
X73099200Y-26900800D01*
X73099200Y-25099200D01*
X74900800Y-25099200D01*
X74900800Y-26900800D01*
X74900800Y-26900800D01*
G37*
G36*
X76716584Y-25112233D02*
G01*
X76716587Y-25112234D01*
X76716588Y-25112234D01*
X76886389Y-25163743D01*
X76933861Y-25189117D01*
X77042881Y-25247389D01*
X77180044Y-25359956D01*
X77292611Y-25497119D01*
X77350883Y-25606139D01*
X77376257Y-25653611D01*
X77427766Y-25823412D01*
X77427767Y-25823416D01*
X77445159Y-26000000D01*
X77427767Y-26176584D01*
X77427766Y-26176587D01*
X77427766Y-26176588D01*
X77376257Y-26346389D01*
X77376256Y-26346390D01*
X77292611Y-26502881D01*
X77180044Y-26640044D01*
X77042881Y-26752611D01*
X76933861Y-26810883D01*
X76886389Y-26836257D01*
X76716588Y-26887766D01*
X76716587Y-26887766D01*
X76716584Y-26887767D01*
X76584255Y-26900800D01*
X76495745Y-26900800D01*
X76363416Y-26887767D01*
X76363413Y-26887766D01*
X76363412Y-26887766D01*
X76193611Y-26836257D01*
X76146139Y-26810883D01*
X76037119Y-26752611D01*
X75899956Y-26640044D01*
X75787389Y-26502881D01*
X75703744Y-26346390D01*
X75703743Y-26346389D01*
X75652234Y-26176588D01*
X75652234Y-26176587D01*
X75652233Y-26176584D01*
X75634841Y-26000000D01*
X75652233Y-25823416D01*
X75652234Y-25823412D01*
X75703743Y-25653611D01*
X75729117Y-25606139D01*
X75787389Y-25497119D01*
X75899956Y-25359956D01*
X76037119Y-25247389D01*
X76146139Y-25189117D01*
X76193611Y-25163743D01*
X76363412Y-25112234D01*
X76363413Y-25112234D01*
X76363416Y-25112233D01*
X76495745Y-25099200D01*
X76584255Y-25099200D01*
X76716584Y-25112233D01*
X76716584Y-25112233D01*
G37*
M02*
