G04 #@! TF.GenerationSoftware,KiCad,Pcbnew,(5.1.2)-2*
G04 #@! TF.CreationDate,2019-09-13T01:35:51-05:00*
G04 #@! TF.ProjectId,breadboard_power,62726561-6462-46f6-9172-645f706f7765,rev?*
G04 #@! TF.SameCoordinates,Original*
G04 #@! TF.FileFunction,Soldermask,Top*
G04 #@! TF.FilePolarity,Negative*
%FSLAX46Y46*%
G04 Gerber Fmt 4.6, Leading zero omitted, Abs format (unit mm)*
G04 Created by KiCad (PCBNEW (5.1.2)-2) date 2019-09-13 01:35:51*
%MOMM*%
%LPD*%
G04 APERTURE LIST*
%ADD10C,0.100000*%
G04 APERTURE END LIST*
D10*
G36*
X44027338Y-42335738D02*
G01*
X44200373Y-42407412D01*
X44356100Y-42511465D01*
X44488535Y-42643900D01*
X44592588Y-42799627D01*
X44664262Y-42972662D01*
X44700800Y-43156354D01*
X44700800Y-43343646D01*
X44664262Y-43527338D01*
X44592588Y-43700373D01*
X44488535Y-43856100D01*
X44356100Y-43988535D01*
X44200373Y-44092588D01*
X44027338Y-44164262D01*
X43843646Y-44200800D01*
X43656354Y-44200800D01*
X43472662Y-44164262D01*
X43299627Y-44092588D01*
X43143900Y-43988535D01*
X43011465Y-43856100D01*
X42907412Y-43700373D01*
X42835738Y-43527338D01*
X42799200Y-43343646D01*
X42799200Y-43156354D01*
X42835738Y-42972662D01*
X42907412Y-42799627D01*
X43011465Y-42643900D01*
X43143900Y-42511465D01*
X43299627Y-42407412D01*
X43472662Y-42335738D01*
X43656354Y-42299200D01*
X43843646Y-42299200D01*
X44027338Y-42335738D01*
X44027338Y-42335738D01*
G37*
G36*
X39054857Y-42404117D02*
G01*
X39100465Y-42417952D01*
X39142504Y-42440422D01*
X39179344Y-42470656D01*
X39209578Y-42507496D01*
X39232048Y-42549535D01*
X39245883Y-42595143D01*
X39250800Y-42645065D01*
X39250800Y-43404935D01*
X39245883Y-43454857D01*
X39232048Y-43500465D01*
X39209578Y-43542504D01*
X39179344Y-43579344D01*
X39142504Y-43609578D01*
X39100465Y-43632048D01*
X39054857Y-43645883D01*
X39004935Y-43650800D01*
X37995065Y-43650800D01*
X37945143Y-43645883D01*
X37899535Y-43632048D01*
X37857496Y-43609578D01*
X37820656Y-43579344D01*
X37790422Y-43542504D01*
X37767952Y-43500465D01*
X37754117Y-43454857D01*
X37749200Y-43404935D01*
X37749200Y-42645065D01*
X37754117Y-42595143D01*
X37767952Y-42549535D01*
X37790422Y-42507496D01*
X37820656Y-42470656D01*
X37857496Y-42440422D01*
X37899535Y-42417952D01*
X37945143Y-42404117D01*
X37995065Y-42399200D01*
X39004935Y-42399200D01*
X39054857Y-42404117D01*
X39054857Y-42404117D01*
G37*
G36*
X44700800Y-41660800D02*
G01*
X42799200Y-41660800D01*
X42799200Y-39759200D01*
X44700800Y-39759200D01*
X44700800Y-41660800D01*
X44700800Y-41660800D01*
G37*
G36*
X39054857Y-40354117D02*
G01*
X39100465Y-40367952D01*
X39142504Y-40390422D01*
X39179344Y-40420656D01*
X39209578Y-40457496D01*
X39232048Y-40499535D01*
X39245883Y-40545143D01*
X39250800Y-40595065D01*
X39250800Y-41354935D01*
X39245883Y-41404857D01*
X39232048Y-41450465D01*
X39209578Y-41492504D01*
X39179344Y-41529344D01*
X39142504Y-41559578D01*
X39100465Y-41582048D01*
X39054857Y-41595883D01*
X39004935Y-41600800D01*
X37995065Y-41600800D01*
X37945143Y-41595883D01*
X37899535Y-41582048D01*
X37857496Y-41559578D01*
X37820656Y-41529344D01*
X37790422Y-41492504D01*
X37767952Y-41450465D01*
X37754117Y-41404857D01*
X37749200Y-41354935D01*
X37749200Y-40595065D01*
X37754117Y-40545143D01*
X37767952Y-40499535D01*
X37790422Y-40457496D01*
X37820656Y-40420656D01*
X37857496Y-40390422D01*
X37899535Y-40367952D01*
X37945143Y-40354117D01*
X37995065Y-40349200D01*
X39004935Y-40349200D01*
X39054857Y-40354117D01*
X39054857Y-40354117D01*
G37*
G36*
X53144014Y-38201110D02*
G01*
X53389843Y-38302936D01*
X53611086Y-38450766D01*
X53799234Y-38638914D01*
X53947064Y-38860157D01*
X54048890Y-39105986D01*
X54100800Y-39366958D01*
X54100800Y-39633042D01*
X54048890Y-39894014D01*
X53947064Y-40139843D01*
X53799234Y-40361086D01*
X53611086Y-40549234D01*
X53389843Y-40697064D01*
X53144014Y-40798890D01*
X52883042Y-40850800D01*
X52616958Y-40850800D01*
X52355986Y-40798890D01*
X52110157Y-40697064D01*
X51888914Y-40549234D01*
X51700766Y-40361086D01*
X51552936Y-40139843D01*
X51451110Y-39894014D01*
X51399200Y-39633042D01*
X51399200Y-39366958D01*
X51451110Y-39105986D01*
X51552936Y-38860157D01*
X51700766Y-38638914D01*
X51888914Y-38450766D01*
X52110157Y-38302936D01*
X52355986Y-38201110D01*
X52616958Y-38149200D01*
X52883042Y-38149200D01*
X53144014Y-38201110D01*
X53144014Y-38201110D01*
G37*
G36*
X65400800Y-38350800D02*
G01*
X63299200Y-38350800D01*
X63299200Y-36749200D01*
X65400800Y-36749200D01*
X65400800Y-38350800D01*
X65400800Y-38350800D01*
G37*
G36*
X42700800Y-38350800D02*
G01*
X40599200Y-38350800D01*
X40599200Y-36749200D01*
X42700800Y-36749200D01*
X42700800Y-38350800D01*
X42700800Y-38350800D01*
G37*
G36*
X57844014Y-35201110D02*
G01*
X58089843Y-35302936D01*
X58089844Y-35302937D01*
X58311085Y-35450765D01*
X58499235Y-35638915D01*
X58573149Y-35749536D01*
X58647064Y-35860157D01*
X58748890Y-36105986D01*
X58800800Y-36366958D01*
X58800800Y-36633042D01*
X58748890Y-36894014D01*
X58647064Y-37139843D01*
X58499234Y-37361086D01*
X58311086Y-37549234D01*
X58089843Y-37697064D01*
X57844014Y-37798890D01*
X57583042Y-37850800D01*
X57316958Y-37850800D01*
X57055986Y-37798890D01*
X56810157Y-37697064D01*
X56588914Y-37549234D01*
X56400766Y-37361086D01*
X56252936Y-37139843D01*
X56151110Y-36894014D01*
X56099200Y-36633042D01*
X56099200Y-36366958D01*
X56151110Y-36105986D01*
X56252936Y-35860157D01*
X56326851Y-35749536D01*
X56400765Y-35638915D01*
X56588915Y-35450765D01*
X56810156Y-35302937D01*
X56810157Y-35302936D01*
X57055986Y-35201110D01*
X57316958Y-35149200D01*
X57583042Y-35149200D01*
X57844014Y-35201110D01*
X57844014Y-35201110D01*
G37*
G36*
X36400800Y-37200800D02*
G01*
X34299200Y-37200800D01*
X34299200Y-33299200D01*
X36400800Y-33299200D01*
X36400800Y-37200800D01*
X36400800Y-37200800D01*
G37*
G36*
X71700800Y-37200800D02*
G01*
X69599200Y-37200800D01*
X69599200Y-33299200D01*
X71700800Y-33299200D01*
X71700800Y-37200800D01*
X71700800Y-37200800D01*
G37*
G36*
X44554857Y-35654117D02*
G01*
X44600465Y-35667952D01*
X44642504Y-35690422D01*
X44679344Y-35720656D01*
X44709578Y-35757496D01*
X44732048Y-35799535D01*
X44745883Y-35845143D01*
X44750800Y-35895065D01*
X44750800Y-36654935D01*
X44745883Y-36704857D01*
X44732048Y-36750465D01*
X44709578Y-36792504D01*
X44679344Y-36829344D01*
X44642504Y-36859578D01*
X44600465Y-36882048D01*
X44554857Y-36895883D01*
X44504935Y-36900800D01*
X43495065Y-36900800D01*
X43445143Y-36895883D01*
X43399535Y-36882048D01*
X43357496Y-36859578D01*
X43320656Y-36829344D01*
X43290422Y-36792504D01*
X43267952Y-36750465D01*
X43254117Y-36704857D01*
X43249200Y-36654935D01*
X43249200Y-35895065D01*
X43254117Y-35845143D01*
X43267952Y-35799535D01*
X43290422Y-35757496D01*
X43320656Y-35720656D01*
X43357496Y-35690422D01*
X43399535Y-35667952D01*
X43445143Y-35654117D01*
X43495065Y-35649200D01*
X44504935Y-35649200D01*
X44554857Y-35654117D01*
X44554857Y-35654117D01*
G37*
G36*
X62554857Y-35654117D02*
G01*
X62600465Y-35667952D01*
X62642504Y-35690422D01*
X62679344Y-35720656D01*
X62709578Y-35757496D01*
X62732048Y-35799535D01*
X62745883Y-35845143D01*
X62750800Y-35895065D01*
X62750800Y-36654935D01*
X62745883Y-36704857D01*
X62732048Y-36750465D01*
X62709578Y-36792504D01*
X62679344Y-36829344D01*
X62642504Y-36859578D01*
X62600465Y-36882048D01*
X62554857Y-36895883D01*
X62504935Y-36900800D01*
X61495065Y-36900800D01*
X61445143Y-36895883D01*
X61399535Y-36882048D01*
X61357496Y-36859578D01*
X61320656Y-36829344D01*
X61290422Y-36792504D01*
X61267952Y-36750465D01*
X61254117Y-36704857D01*
X61249200Y-36654935D01*
X61249200Y-35895065D01*
X61254117Y-35845143D01*
X61267952Y-35799535D01*
X61290422Y-35757496D01*
X61320656Y-35720656D01*
X61357496Y-35690422D01*
X61399535Y-35667952D01*
X61445143Y-35654117D01*
X61495065Y-35649200D01*
X62504935Y-35649200D01*
X62554857Y-35654117D01*
X62554857Y-35654117D01*
G37*
G36*
X42700800Y-36050800D02*
G01*
X40599200Y-36050800D01*
X40599200Y-34449200D01*
X42700800Y-34449200D01*
X42700800Y-36050800D01*
X42700800Y-36050800D01*
G37*
G36*
X65400800Y-36050800D02*
G01*
X63299200Y-36050800D01*
X63299200Y-34449200D01*
X65400800Y-34449200D01*
X65400800Y-36050800D01*
X65400800Y-36050800D01*
G37*
G36*
X62554857Y-33604117D02*
G01*
X62600465Y-33617952D01*
X62642504Y-33640422D01*
X62679344Y-33670656D01*
X62709578Y-33707496D01*
X62732048Y-33749535D01*
X62745883Y-33795143D01*
X62750800Y-33845065D01*
X62750800Y-34604935D01*
X62745883Y-34654857D01*
X62732048Y-34700465D01*
X62709578Y-34742504D01*
X62679344Y-34779344D01*
X62642504Y-34809578D01*
X62600465Y-34832048D01*
X62554857Y-34845883D01*
X62504935Y-34850800D01*
X61495065Y-34850800D01*
X61445143Y-34845883D01*
X61399535Y-34832048D01*
X61357496Y-34809578D01*
X61320656Y-34779344D01*
X61290422Y-34742504D01*
X61267952Y-34700465D01*
X61254117Y-34654857D01*
X61249200Y-34604935D01*
X61249200Y-33845065D01*
X61254117Y-33795143D01*
X61267952Y-33749535D01*
X61290422Y-33707496D01*
X61320656Y-33670656D01*
X61357496Y-33640422D01*
X61399535Y-33617952D01*
X61445143Y-33604117D01*
X61495065Y-33599200D01*
X62504935Y-33599200D01*
X62554857Y-33604117D01*
X62554857Y-33604117D01*
G37*
G36*
X44554857Y-33604117D02*
G01*
X44600465Y-33617952D01*
X44642504Y-33640422D01*
X44679344Y-33670656D01*
X44709578Y-33707496D01*
X44732048Y-33749535D01*
X44745883Y-33795143D01*
X44750800Y-33845065D01*
X44750800Y-34604935D01*
X44745883Y-34654857D01*
X44732048Y-34700465D01*
X44709578Y-34742504D01*
X44679344Y-34779344D01*
X44642504Y-34809578D01*
X44600465Y-34832048D01*
X44554857Y-34845883D01*
X44504935Y-34850800D01*
X43495065Y-34850800D01*
X43445143Y-34845883D01*
X43399535Y-34832048D01*
X43357496Y-34809578D01*
X43320656Y-34779344D01*
X43290422Y-34742504D01*
X43267952Y-34700465D01*
X43254117Y-34654857D01*
X43249200Y-34604935D01*
X43249200Y-33845065D01*
X43254117Y-33795143D01*
X43267952Y-33749535D01*
X43290422Y-33707496D01*
X43320656Y-33670656D01*
X43357496Y-33640422D01*
X43399535Y-33617952D01*
X43445143Y-33604117D01*
X43495065Y-33599200D01*
X44504935Y-33599200D01*
X44554857Y-33604117D01*
X44554857Y-33604117D01*
G37*
G36*
X54100800Y-34850800D02*
G01*
X51399200Y-34850800D01*
X51399200Y-32149200D01*
X54100800Y-32149200D01*
X54100800Y-34850800D01*
X54100800Y-34850800D01*
G37*
G36*
X65400800Y-33750800D02*
G01*
X63299200Y-33750800D01*
X63299200Y-32149200D01*
X65400800Y-32149200D01*
X65400800Y-33750800D01*
X65400800Y-33750800D01*
G37*
G36*
X42700800Y-33750800D02*
G01*
X40599200Y-33750800D01*
X40599200Y-32149200D01*
X42700800Y-32149200D01*
X42700800Y-33750800D01*
X42700800Y-33750800D01*
G37*
G36*
X30379857Y-31504117D02*
G01*
X30425465Y-31517952D01*
X30467504Y-31540422D01*
X30504344Y-31570656D01*
X30534578Y-31607496D01*
X30557048Y-31649535D01*
X30570883Y-31695143D01*
X30575800Y-31745065D01*
X30575800Y-32754935D01*
X30570883Y-32804857D01*
X30557048Y-32850465D01*
X30534578Y-32892504D01*
X30504344Y-32929344D01*
X30467504Y-32959578D01*
X30425465Y-32982048D01*
X30379857Y-32995883D01*
X30329935Y-33000800D01*
X29570065Y-33000800D01*
X29520143Y-32995883D01*
X29474535Y-32982048D01*
X29432496Y-32959578D01*
X29395656Y-32929344D01*
X29365422Y-32892504D01*
X29342952Y-32850465D01*
X29329117Y-32804857D01*
X29324200Y-32754935D01*
X29324200Y-31745065D01*
X29329117Y-31695143D01*
X29342952Y-31649535D01*
X29365422Y-31607496D01*
X29395656Y-31570656D01*
X29432496Y-31540422D01*
X29474535Y-31517952D01*
X29520143Y-31504117D01*
X29570065Y-31499200D01*
X30329935Y-31499200D01*
X30379857Y-31504117D01*
X30379857Y-31504117D01*
G37*
G36*
X32429857Y-31504117D02*
G01*
X32475465Y-31517952D01*
X32517504Y-31540422D01*
X32554344Y-31570656D01*
X32584578Y-31607496D01*
X32607048Y-31649535D01*
X32620883Y-31695143D01*
X32625800Y-31745065D01*
X32625800Y-32754935D01*
X32620883Y-32804857D01*
X32607048Y-32850465D01*
X32584578Y-32892504D01*
X32554344Y-32929344D01*
X32517504Y-32959578D01*
X32475465Y-32982048D01*
X32429857Y-32995883D01*
X32379935Y-33000800D01*
X31620065Y-33000800D01*
X31570143Y-32995883D01*
X31524535Y-32982048D01*
X31482496Y-32959578D01*
X31445656Y-32929344D01*
X31415422Y-32892504D01*
X31392952Y-32850465D01*
X31379117Y-32804857D01*
X31374200Y-32754935D01*
X31374200Y-31745065D01*
X31379117Y-31695143D01*
X31392952Y-31649535D01*
X31415422Y-31607496D01*
X31445656Y-31570656D01*
X31482496Y-31540422D01*
X31524535Y-31517952D01*
X31570143Y-31504117D01*
X31620065Y-31499200D01*
X32379935Y-31499200D01*
X32429857Y-31504117D01*
X32429857Y-31504117D01*
G37*
G36*
X74404857Y-31504117D02*
G01*
X74450465Y-31517952D01*
X74492504Y-31540422D01*
X74529344Y-31570656D01*
X74559578Y-31607496D01*
X74582048Y-31649535D01*
X74595883Y-31695143D01*
X74600800Y-31745065D01*
X74600800Y-32754935D01*
X74595883Y-32804857D01*
X74582048Y-32850465D01*
X74559578Y-32892504D01*
X74529344Y-32929344D01*
X74492504Y-32959578D01*
X74450465Y-32982048D01*
X74404857Y-32995883D01*
X74354935Y-33000800D01*
X73595065Y-33000800D01*
X73545143Y-32995883D01*
X73499535Y-32982048D01*
X73457496Y-32959578D01*
X73420656Y-32929344D01*
X73390422Y-32892504D01*
X73367952Y-32850465D01*
X73354117Y-32804857D01*
X73349200Y-32754935D01*
X73349200Y-31745065D01*
X73354117Y-31695143D01*
X73367952Y-31649535D01*
X73390422Y-31607496D01*
X73420656Y-31570656D01*
X73457496Y-31540422D01*
X73499535Y-31517952D01*
X73545143Y-31504117D01*
X73595065Y-31499200D01*
X74354935Y-31499200D01*
X74404857Y-31504117D01*
X74404857Y-31504117D01*
G37*
G36*
X76454857Y-31504117D02*
G01*
X76500465Y-31517952D01*
X76542504Y-31540422D01*
X76579344Y-31570656D01*
X76609578Y-31607496D01*
X76632048Y-31649535D01*
X76645883Y-31695143D01*
X76650800Y-31745065D01*
X76650800Y-32754935D01*
X76645883Y-32804857D01*
X76632048Y-32850465D01*
X76609578Y-32892504D01*
X76579344Y-32929344D01*
X76542504Y-32959578D01*
X76500465Y-32982048D01*
X76454857Y-32995883D01*
X76404935Y-33000800D01*
X75645065Y-33000800D01*
X75595143Y-32995883D01*
X75549535Y-32982048D01*
X75507496Y-32959578D01*
X75470656Y-32929344D01*
X75440422Y-32892504D01*
X75417952Y-32850465D01*
X75404117Y-32804857D01*
X75399200Y-32754935D01*
X75399200Y-31745065D01*
X75404117Y-31695143D01*
X75417952Y-31649535D01*
X75440422Y-31607496D01*
X75470656Y-31570656D01*
X75507496Y-31540422D01*
X75549535Y-31517952D01*
X75595143Y-31504117D01*
X75645065Y-31499200D01*
X76404935Y-31499200D01*
X76454857Y-31504117D01*
X76454857Y-31504117D01*
G37*
G36*
X29636584Y-27652233D02*
G01*
X29636587Y-27652234D01*
X29636588Y-27652234D01*
X29806389Y-27703743D01*
X29853861Y-27729117D01*
X29962881Y-27787389D01*
X30100044Y-27899956D01*
X30212611Y-28037119D01*
X30270883Y-28146139D01*
X30296257Y-28193611D01*
X30347766Y-28363412D01*
X30347767Y-28363416D01*
X30365159Y-28540000D01*
X30347767Y-28716584D01*
X30347766Y-28716587D01*
X30347766Y-28716588D01*
X30296257Y-28886389D01*
X30296256Y-28886390D01*
X30212611Y-29042881D01*
X30100044Y-29180044D01*
X29962881Y-29292611D01*
X29853861Y-29350883D01*
X29806389Y-29376257D01*
X29636588Y-29427766D01*
X29636587Y-29427766D01*
X29636584Y-29427767D01*
X29504255Y-29440800D01*
X29415745Y-29440800D01*
X29283416Y-29427767D01*
X29283413Y-29427766D01*
X29283412Y-29427766D01*
X29113611Y-29376257D01*
X29066139Y-29350883D01*
X28957119Y-29292611D01*
X28819956Y-29180044D01*
X28707389Y-29042881D01*
X28623744Y-28886390D01*
X28623743Y-28886389D01*
X28572234Y-28716588D01*
X28572234Y-28716587D01*
X28572233Y-28716584D01*
X28554841Y-28540000D01*
X28572233Y-28363416D01*
X28572234Y-28363412D01*
X28623743Y-28193611D01*
X28649117Y-28146139D01*
X28707389Y-28037119D01*
X28819956Y-27899956D01*
X28957119Y-27787389D01*
X29066139Y-27729117D01*
X29113611Y-27703743D01*
X29283412Y-27652234D01*
X29283413Y-27652234D01*
X29283416Y-27652233D01*
X29415745Y-27639200D01*
X29504255Y-27639200D01*
X29636584Y-27652233D01*
X29636584Y-27652233D01*
G37*
G36*
X76716584Y-27652233D02*
G01*
X76716587Y-27652234D01*
X76716588Y-27652234D01*
X76886389Y-27703743D01*
X76933861Y-27729117D01*
X77042881Y-27787389D01*
X77180044Y-27899956D01*
X77292611Y-28037119D01*
X77350883Y-28146139D01*
X77376257Y-28193611D01*
X77427766Y-28363412D01*
X77427767Y-28363416D01*
X77445159Y-28540000D01*
X77427767Y-28716584D01*
X77427766Y-28716587D01*
X77427766Y-28716588D01*
X77376257Y-28886389D01*
X77376256Y-28886390D01*
X77292611Y-29042881D01*
X77180044Y-29180044D01*
X77042881Y-29292611D01*
X76933861Y-29350883D01*
X76886389Y-29376257D01*
X76716588Y-29427766D01*
X76716587Y-29427766D01*
X76716584Y-29427767D01*
X76584255Y-29440800D01*
X76495745Y-29440800D01*
X76363416Y-29427767D01*
X76363413Y-29427766D01*
X76363412Y-29427766D01*
X76193611Y-29376257D01*
X76146139Y-29350883D01*
X76037119Y-29292611D01*
X75899956Y-29180044D01*
X75787389Y-29042881D01*
X75703744Y-28886390D01*
X75703743Y-28886389D01*
X75652234Y-28716588D01*
X75652234Y-28716587D01*
X75652233Y-28716584D01*
X75634841Y-28540000D01*
X75652233Y-28363416D01*
X75652234Y-28363412D01*
X75703743Y-28193611D01*
X75729117Y-28146139D01*
X75787389Y-28037119D01*
X75899956Y-27899956D01*
X76037119Y-27787389D01*
X76146139Y-27729117D01*
X76193611Y-27703743D01*
X76363412Y-27652234D01*
X76363413Y-27652234D01*
X76363416Y-27652233D01*
X76495745Y-27639200D01*
X76584255Y-27639200D01*
X76716584Y-27652233D01*
X76716584Y-27652233D01*
G37*
G36*
X74176584Y-27652233D02*
G01*
X74176587Y-27652234D01*
X74176588Y-27652234D01*
X74346389Y-27703743D01*
X74393861Y-27729117D01*
X74502881Y-27787389D01*
X74640044Y-27899956D01*
X74752611Y-28037119D01*
X74810883Y-28146139D01*
X74836257Y-28193611D01*
X74887766Y-28363412D01*
X74887767Y-28363416D01*
X74905159Y-28540000D01*
X74887767Y-28716584D01*
X74887766Y-28716587D01*
X74887766Y-28716588D01*
X74836257Y-28886389D01*
X74836256Y-28886390D01*
X74752611Y-29042881D01*
X74640044Y-29180044D01*
X74502881Y-29292611D01*
X74393861Y-29350883D01*
X74346389Y-29376257D01*
X74176588Y-29427766D01*
X74176587Y-29427766D01*
X74176584Y-29427767D01*
X74044255Y-29440800D01*
X73955745Y-29440800D01*
X73823416Y-29427767D01*
X73823413Y-29427766D01*
X73823412Y-29427766D01*
X73653611Y-29376257D01*
X73606139Y-29350883D01*
X73497119Y-29292611D01*
X73359956Y-29180044D01*
X73247389Y-29042881D01*
X73163744Y-28886390D01*
X73163743Y-28886389D01*
X73112234Y-28716588D01*
X73112234Y-28716587D01*
X73112233Y-28716584D01*
X73094841Y-28540000D01*
X73112233Y-28363416D01*
X73112234Y-28363412D01*
X73163743Y-28193611D01*
X73189117Y-28146139D01*
X73247389Y-28037119D01*
X73359956Y-27899956D01*
X73497119Y-27787389D01*
X73606139Y-27729117D01*
X73653611Y-27703743D01*
X73823412Y-27652234D01*
X73823413Y-27652234D01*
X73823416Y-27652233D01*
X73955745Y-27639200D01*
X74044255Y-27639200D01*
X74176584Y-27652233D01*
X74176584Y-27652233D01*
G37*
G36*
X32176584Y-27652233D02*
G01*
X32176587Y-27652234D01*
X32176588Y-27652234D01*
X32346389Y-27703743D01*
X32393861Y-27729117D01*
X32502881Y-27787389D01*
X32640044Y-27899956D01*
X32752611Y-28037119D01*
X32810883Y-28146139D01*
X32836257Y-28193611D01*
X32887766Y-28363412D01*
X32887767Y-28363416D01*
X32905159Y-28540000D01*
X32887767Y-28716584D01*
X32887766Y-28716587D01*
X32887766Y-28716588D01*
X32836257Y-28886389D01*
X32836256Y-28886390D01*
X32752611Y-29042881D01*
X32640044Y-29180044D01*
X32502881Y-29292611D01*
X32393861Y-29350883D01*
X32346389Y-29376257D01*
X32176588Y-29427766D01*
X32176587Y-29427766D01*
X32176584Y-29427767D01*
X32044255Y-29440800D01*
X31955745Y-29440800D01*
X31823416Y-29427767D01*
X31823413Y-29427766D01*
X31823412Y-29427766D01*
X31653611Y-29376257D01*
X31606139Y-29350883D01*
X31497119Y-29292611D01*
X31359956Y-29180044D01*
X31247389Y-29042881D01*
X31163744Y-28886390D01*
X31163743Y-28886389D01*
X31112234Y-28716588D01*
X31112234Y-28716587D01*
X31112233Y-28716584D01*
X31094841Y-28540000D01*
X31112233Y-28363416D01*
X31112234Y-28363412D01*
X31163743Y-28193611D01*
X31189117Y-28146139D01*
X31247389Y-28037119D01*
X31359956Y-27899956D01*
X31497119Y-27787389D01*
X31606139Y-27729117D01*
X31653611Y-27703743D01*
X31823412Y-27652234D01*
X31823413Y-27652234D01*
X31823416Y-27652233D01*
X31955745Y-27639200D01*
X32044255Y-27639200D01*
X32176584Y-27652233D01*
X32176584Y-27652233D01*
G37*
G36*
X74900800Y-26900800D02*
G01*
X73099200Y-26900800D01*
X73099200Y-25099200D01*
X74900800Y-25099200D01*
X74900800Y-26900800D01*
X74900800Y-26900800D01*
G37*
G36*
X76716584Y-25112233D02*
G01*
X76716587Y-25112234D01*
X76716588Y-25112234D01*
X76886389Y-25163743D01*
X76933861Y-25189117D01*
X77042881Y-25247389D01*
X77180044Y-25359956D01*
X77292611Y-25497119D01*
X77350883Y-25606139D01*
X77376257Y-25653611D01*
X77427766Y-25823412D01*
X77427767Y-25823416D01*
X77445159Y-26000000D01*
X77427767Y-26176584D01*
X77427766Y-26176587D01*
X77427766Y-26176588D01*
X77376257Y-26346389D01*
X77376256Y-26346390D01*
X77292611Y-26502881D01*
X77180044Y-26640044D01*
X77042881Y-26752611D01*
X76933861Y-26810883D01*
X76886389Y-26836257D01*
X76716588Y-26887766D01*
X76716587Y-26887766D01*
X76716584Y-26887767D01*
X76584255Y-26900800D01*
X76495745Y-26900800D01*
X76363416Y-26887767D01*
X76363413Y-26887766D01*
X76363412Y-26887766D01*
X76193611Y-26836257D01*
X76146139Y-26810883D01*
X76037119Y-26752611D01*
X75899956Y-26640044D01*
X75787389Y-26502881D01*
X75703744Y-26346390D01*
X75703743Y-26346389D01*
X75652234Y-26176588D01*
X75652234Y-26176587D01*
X75652233Y-26176584D01*
X75634841Y-26000000D01*
X75652233Y-25823416D01*
X75652234Y-25823412D01*
X75703743Y-25653611D01*
X75729117Y-25606139D01*
X75787389Y-25497119D01*
X75899956Y-25359956D01*
X76037119Y-25247389D01*
X76146139Y-25189117D01*
X76193611Y-25163743D01*
X76363412Y-25112234D01*
X76363413Y-25112234D01*
X76363416Y-25112233D01*
X76495745Y-25099200D01*
X76584255Y-25099200D01*
X76716584Y-25112233D01*
X76716584Y-25112233D01*
G37*
G36*
X30360800Y-26900800D02*
G01*
X28559200Y-26900800D01*
X28559200Y-25099200D01*
X30360800Y-25099200D01*
X30360800Y-26900800D01*
X30360800Y-26900800D01*
G37*
G36*
X32176584Y-25112233D02*
G01*
X32176587Y-25112234D01*
X32176588Y-25112234D01*
X32346389Y-25163743D01*
X32393861Y-25189117D01*
X32502881Y-25247389D01*
X32640044Y-25359956D01*
X32752611Y-25497119D01*
X32810883Y-25606139D01*
X32836257Y-25653611D01*
X32887766Y-25823412D01*
X32887767Y-25823416D01*
X32905159Y-26000000D01*
X32887767Y-26176584D01*
X32887766Y-26176587D01*
X32887766Y-26176588D01*
X32836257Y-26346389D01*
X32836256Y-26346390D01*
X32752611Y-26502881D01*
X32640044Y-26640044D01*
X32502881Y-26752611D01*
X32393861Y-26810883D01*
X32346389Y-26836257D01*
X32176588Y-26887766D01*
X32176587Y-26887766D01*
X32176584Y-26887767D01*
X32044255Y-26900800D01*
X31955745Y-26900800D01*
X31823416Y-26887767D01*
X31823413Y-26887766D01*
X31823412Y-26887766D01*
X31653611Y-26836257D01*
X31606139Y-26810883D01*
X31497119Y-26752611D01*
X31359956Y-26640044D01*
X31247389Y-26502881D01*
X31163744Y-26346390D01*
X31163743Y-26346389D01*
X31112234Y-26176588D01*
X31112234Y-26176587D01*
X31112233Y-26176584D01*
X31094841Y-26000000D01*
X31112233Y-25823416D01*
X31112234Y-25823412D01*
X31163743Y-25653611D01*
X31189117Y-25606139D01*
X31247389Y-25497119D01*
X31359956Y-25359956D01*
X31497119Y-25247389D01*
X31606139Y-25189117D01*
X31653611Y-25163743D01*
X31823412Y-25112234D01*
X31823413Y-25112234D01*
X31823416Y-25112233D01*
X31955745Y-25099200D01*
X32044255Y-25099200D01*
X32176584Y-25112233D01*
X32176584Y-25112233D01*
G37*
M02*
