G04 #@! TF.GenerationSoftware,KiCad,Pcbnew,(5.1.2)-2*
G04 #@! TF.CreationDate,2019-09-13T01:35:51-05:00*
G04 #@! TF.ProjectId,breadboard_power,62726561-6462-46f6-9172-645f706f7765,rev?*
G04 #@! TF.SameCoordinates,Original*
G04 #@! TF.FileFunction,Copper,L1,Top*
G04 #@! TF.FilePolarity,Positive*
%FSLAX46Y46*%
G04 Gerber Fmt 4.6, Leading zero omitted, Abs format (unit mm)*
G04 Created by KiCad (PCBNEW (5.1.2)-2) date 2019-09-13 01:35:51*
%MOMM*%
%LPD*%
G04 APERTURE LIST*
%ADD10C,0.100000*%
%ADD11C,1.150000*%
%ADD12R,1.800000X1.800000*%
%ADD13C,1.800000*%
%ADD14R,2.600000X2.600000*%
%ADD15C,2.600000*%
%ADD16O,1.700000X1.700000*%
%ADD17R,1.700000X1.700000*%
%ADD18R,2.000000X1.500000*%
%ADD19R,2.000000X3.800000*%
%ADD20C,0.685800*%
%ADD21C,0.508000*%
G04 APERTURE END LIST*
D10*
G36*
X44474505Y-33651204D02*
G01*
X44498773Y-33654804D01*
X44522572Y-33660765D01*
X44545671Y-33669030D01*
X44567850Y-33679520D01*
X44588893Y-33692132D01*
X44608599Y-33706747D01*
X44626777Y-33723223D01*
X44643253Y-33741401D01*
X44657868Y-33761107D01*
X44670480Y-33782150D01*
X44680970Y-33804329D01*
X44689235Y-33827428D01*
X44695196Y-33851227D01*
X44698796Y-33875495D01*
X44700000Y-33899999D01*
X44700000Y-34550001D01*
X44698796Y-34574505D01*
X44695196Y-34598773D01*
X44689235Y-34622572D01*
X44680970Y-34645671D01*
X44670480Y-34667850D01*
X44657868Y-34688893D01*
X44643253Y-34708599D01*
X44626777Y-34726777D01*
X44608599Y-34743253D01*
X44588893Y-34757868D01*
X44567850Y-34770480D01*
X44545671Y-34780970D01*
X44522572Y-34789235D01*
X44498773Y-34795196D01*
X44474505Y-34798796D01*
X44450001Y-34800000D01*
X43549999Y-34800000D01*
X43525495Y-34798796D01*
X43501227Y-34795196D01*
X43477428Y-34789235D01*
X43454329Y-34780970D01*
X43432150Y-34770480D01*
X43411107Y-34757868D01*
X43391401Y-34743253D01*
X43373223Y-34726777D01*
X43356747Y-34708599D01*
X43342132Y-34688893D01*
X43329520Y-34667850D01*
X43319030Y-34645671D01*
X43310765Y-34622572D01*
X43304804Y-34598773D01*
X43301204Y-34574505D01*
X43300000Y-34550001D01*
X43300000Y-33899999D01*
X43301204Y-33875495D01*
X43304804Y-33851227D01*
X43310765Y-33827428D01*
X43319030Y-33804329D01*
X43329520Y-33782150D01*
X43342132Y-33761107D01*
X43356747Y-33741401D01*
X43373223Y-33723223D01*
X43391401Y-33706747D01*
X43411107Y-33692132D01*
X43432150Y-33679520D01*
X43454329Y-33669030D01*
X43477428Y-33660765D01*
X43501227Y-33654804D01*
X43525495Y-33651204D01*
X43549999Y-33650000D01*
X44450001Y-33650000D01*
X44474505Y-33651204D01*
X44474505Y-33651204D01*
G37*
D11*
X44000000Y-34225000D03*
D10*
G36*
X44474505Y-35701204D02*
G01*
X44498773Y-35704804D01*
X44522572Y-35710765D01*
X44545671Y-35719030D01*
X44567850Y-35729520D01*
X44588893Y-35742132D01*
X44608599Y-35756747D01*
X44626777Y-35773223D01*
X44643253Y-35791401D01*
X44657868Y-35811107D01*
X44670480Y-35832150D01*
X44680970Y-35854329D01*
X44689235Y-35877428D01*
X44695196Y-35901227D01*
X44698796Y-35925495D01*
X44700000Y-35949999D01*
X44700000Y-36600001D01*
X44698796Y-36624505D01*
X44695196Y-36648773D01*
X44689235Y-36672572D01*
X44680970Y-36695671D01*
X44670480Y-36717850D01*
X44657868Y-36738893D01*
X44643253Y-36758599D01*
X44626777Y-36776777D01*
X44608599Y-36793253D01*
X44588893Y-36807868D01*
X44567850Y-36820480D01*
X44545671Y-36830970D01*
X44522572Y-36839235D01*
X44498773Y-36845196D01*
X44474505Y-36848796D01*
X44450001Y-36850000D01*
X43549999Y-36850000D01*
X43525495Y-36848796D01*
X43501227Y-36845196D01*
X43477428Y-36839235D01*
X43454329Y-36830970D01*
X43432150Y-36820480D01*
X43411107Y-36807868D01*
X43391401Y-36793253D01*
X43373223Y-36776777D01*
X43356747Y-36758599D01*
X43342132Y-36738893D01*
X43329520Y-36717850D01*
X43319030Y-36695671D01*
X43310765Y-36672572D01*
X43304804Y-36648773D01*
X43301204Y-36624505D01*
X43300000Y-36600001D01*
X43300000Y-35949999D01*
X43301204Y-35925495D01*
X43304804Y-35901227D01*
X43310765Y-35877428D01*
X43319030Y-35854329D01*
X43329520Y-35832150D01*
X43342132Y-35811107D01*
X43356747Y-35791401D01*
X43373223Y-35773223D01*
X43391401Y-35756747D01*
X43411107Y-35742132D01*
X43432150Y-35729520D01*
X43454329Y-35719030D01*
X43477428Y-35710765D01*
X43501227Y-35704804D01*
X43525495Y-35701204D01*
X43549999Y-35700000D01*
X44450001Y-35700000D01*
X44474505Y-35701204D01*
X44474505Y-35701204D01*
G37*
D11*
X44000000Y-36275000D03*
D10*
G36*
X62474505Y-35701204D02*
G01*
X62498773Y-35704804D01*
X62522572Y-35710765D01*
X62545671Y-35719030D01*
X62567850Y-35729520D01*
X62588893Y-35742132D01*
X62608599Y-35756747D01*
X62626777Y-35773223D01*
X62643253Y-35791401D01*
X62657868Y-35811107D01*
X62670480Y-35832150D01*
X62680970Y-35854329D01*
X62689235Y-35877428D01*
X62695196Y-35901227D01*
X62698796Y-35925495D01*
X62700000Y-35949999D01*
X62700000Y-36600001D01*
X62698796Y-36624505D01*
X62695196Y-36648773D01*
X62689235Y-36672572D01*
X62680970Y-36695671D01*
X62670480Y-36717850D01*
X62657868Y-36738893D01*
X62643253Y-36758599D01*
X62626777Y-36776777D01*
X62608599Y-36793253D01*
X62588893Y-36807868D01*
X62567850Y-36820480D01*
X62545671Y-36830970D01*
X62522572Y-36839235D01*
X62498773Y-36845196D01*
X62474505Y-36848796D01*
X62450001Y-36850000D01*
X61549999Y-36850000D01*
X61525495Y-36848796D01*
X61501227Y-36845196D01*
X61477428Y-36839235D01*
X61454329Y-36830970D01*
X61432150Y-36820480D01*
X61411107Y-36807868D01*
X61391401Y-36793253D01*
X61373223Y-36776777D01*
X61356747Y-36758599D01*
X61342132Y-36738893D01*
X61329520Y-36717850D01*
X61319030Y-36695671D01*
X61310765Y-36672572D01*
X61304804Y-36648773D01*
X61301204Y-36624505D01*
X61300000Y-36600001D01*
X61300000Y-35949999D01*
X61301204Y-35925495D01*
X61304804Y-35901227D01*
X61310765Y-35877428D01*
X61319030Y-35854329D01*
X61329520Y-35832150D01*
X61342132Y-35811107D01*
X61356747Y-35791401D01*
X61373223Y-35773223D01*
X61391401Y-35756747D01*
X61411107Y-35742132D01*
X61432150Y-35729520D01*
X61454329Y-35719030D01*
X61477428Y-35710765D01*
X61501227Y-35704804D01*
X61525495Y-35701204D01*
X61549999Y-35700000D01*
X62450001Y-35700000D01*
X62474505Y-35701204D01*
X62474505Y-35701204D01*
G37*
D11*
X62000000Y-36275000D03*
D10*
G36*
X62474505Y-33651204D02*
G01*
X62498773Y-33654804D01*
X62522572Y-33660765D01*
X62545671Y-33669030D01*
X62567850Y-33679520D01*
X62588893Y-33692132D01*
X62608599Y-33706747D01*
X62626777Y-33723223D01*
X62643253Y-33741401D01*
X62657868Y-33761107D01*
X62670480Y-33782150D01*
X62680970Y-33804329D01*
X62689235Y-33827428D01*
X62695196Y-33851227D01*
X62698796Y-33875495D01*
X62700000Y-33899999D01*
X62700000Y-34550001D01*
X62698796Y-34574505D01*
X62695196Y-34598773D01*
X62689235Y-34622572D01*
X62680970Y-34645671D01*
X62670480Y-34667850D01*
X62657868Y-34688893D01*
X62643253Y-34708599D01*
X62626777Y-34726777D01*
X62608599Y-34743253D01*
X62588893Y-34757868D01*
X62567850Y-34770480D01*
X62545671Y-34780970D01*
X62522572Y-34789235D01*
X62498773Y-34795196D01*
X62474505Y-34798796D01*
X62450001Y-34800000D01*
X61549999Y-34800000D01*
X61525495Y-34798796D01*
X61501227Y-34795196D01*
X61477428Y-34789235D01*
X61454329Y-34780970D01*
X61432150Y-34770480D01*
X61411107Y-34757868D01*
X61391401Y-34743253D01*
X61373223Y-34726777D01*
X61356747Y-34708599D01*
X61342132Y-34688893D01*
X61329520Y-34667850D01*
X61319030Y-34645671D01*
X61310765Y-34622572D01*
X61304804Y-34598773D01*
X61301204Y-34574505D01*
X61300000Y-34550001D01*
X61300000Y-33899999D01*
X61301204Y-33875495D01*
X61304804Y-33851227D01*
X61310765Y-33827428D01*
X61319030Y-33804329D01*
X61329520Y-33782150D01*
X61342132Y-33761107D01*
X61356747Y-33741401D01*
X61373223Y-33723223D01*
X61391401Y-33706747D01*
X61411107Y-33692132D01*
X61432150Y-33679520D01*
X61454329Y-33669030D01*
X61477428Y-33660765D01*
X61501227Y-33654804D01*
X61525495Y-33651204D01*
X61549999Y-33650000D01*
X62450001Y-33650000D01*
X62474505Y-33651204D01*
X62474505Y-33651204D01*
G37*
D11*
X62000000Y-34225000D03*
D10*
G36*
X76374505Y-31551204D02*
G01*
X76398773Y-31554804D01*
X76422572Y-31560765D01*
X76445671Y-31569030D01*
X76467850Y-31579520D01*
X76488893Y-31592132D01*
X76508599Y-31606747D01*
X76526777Y-31623223D01*
X76543253Y-31641401D01*
X76557868Y-31661107D01*
X76570480Y-31682150D01*
X76580970Y-31704329D01*
X76589235Y-31727428D01*
X76595196Y-31751227D01*
X76598796Y-31775495D01*
X76600000Y-31799999D01*
X76600000Y-32700001D01*
X76598796Y-32724505D01*
X76595196Y-32748773D01*
X76589235Y-32772572D01*
X76580970Y-32795671D01*
X76570480Y-32817850D01*
X76557868Y-32838893D01*
X76543253Y-32858599D01*
X76526777Y-32876777D01*
X76508599Y-32893253D01*
X76488893Y-32907868D01*
X76467850Y-32920480D01*
X76445671Y-32930970D01*
X76422572Y-32939235D01*
X76398773Y-32945196D01*
X76374505Y-32948796D01*
X76350001Y-32950000D01*
X75699999Y-32950000D01*
X75675495Y-32948796D01*
X75651227Y-32945196D01*
X75627428Y-32939235D01*
X75604329Y-32930970D01*
X75582150Y-32920480D01*
X75561107Y-32907868D01*
X75541401Y-32893253D01*
X75523223Y-32876777D01*
X75506747Y-32858599D01*
X75492132Y-32838893D01*
X75479520Y-32817850D01*
X75469030Y-32795671D01*
X75460765Y-32772572D01*
X75454804Y-32748773D01*
X75451204Y-32724505D01*
X75450000Y-32700001D01*
X75450000Y-31799999D01*
X75451204Y-31775495D01*
X75454804Y-31751227D01*
X75460765Y-31727428D01*
X75469030Y-31704329D01*
X75479520Y-31682150D01*
X75492132Y-31661107D01*
X75506747Y-31641401D01*
X75523223Y-31623223D01*
X75541401Y-31606747D01*
X75561107Y-31592132D01*
X75582150Y-31579520D01*
X75604329Y-31569030D01*
X75627428Y-31560765D01*
X75651227Y-31554804D01*
X75675495Y-31551204D01*
X75699999Y-31550000D01*
X76350001Y-31550000D01*
X76374505Y-31551204D01*
X76374505Y-31551204D01*
G37*
D11*
X76025000Y-32250000D03*
D10*
G36*
X74324505Y-31551204D02*
G01*
X74348773Y-31554804D01*
X74372572Y-31560765D01*
X74395671Y-31569030D01*
X74417850Y-31579520D01*
X74438893Y-31592132D01*
X74458599Y-31606747D01*
X74476777Y-31623223D01*
X74493253Y-31641401D01*
X74507868Y-31661107D01*
X74520480Y-31682150D01*
X74530970Y-31704329D01*
X74539235Y-31727428D01*
X74545196Y-31751227D01*
X74548796Y-31775495D01*
X74550000Y-31799999D01*
X74550000Y-32700001D01*
X74548796Y-32724505D01*
X74545196Y-32748773D01*
X74539235Y-32772572D01*
X74530970Y-32795671D01*
X74520480Y-32817850D01*
X74507868Y-32838893D01*
X74493253Y-32858599D01*
X74476777Y-32876777D01*
X74458599Y-32893253D01*
X74438893Y-32907868D01*
X74417850Y-32920480D01*
X74395671Y-32930970D01*
X74372572Y-32939235D01*
X74348773Y-32945196D01*
X74324505Y-32948796D01*
X74300001Y-32950000D01*
X73649999Y-32950000D01*
X73625495Y-32948796D01*
X73601227Y-32945196D01*
X73577428Y-32939235D01*
X73554329Y-32930970D01*
X73532150Y-32920480D01*
X73511107Y-32907868D01*
X73491401Y-32893253D01*
X73473223Y-32876777D01*
X73456747Y-32858599D01*
X73442132Y-32838893D01*
X73429520Y-32817850D01*
X73419030Y-32795671D01*
X73410765Y-32772572D01*
X73404804Y-32748773D01*
X73401204Y-32724505D01*
X73400000Y-32700001D01*
X73400000Y-31799999D01*
X73401204Y-31775495D01*
X73404804Y-31751227D01*
X73410765Y-31727428D01*
X73419030Y-31704329D01*
X73429520Y-31682150D01*
X73442132Y-31661107D01*
X73456747Y-31641401D01*
X73473223Y-31623223D01*
X73491401Y-31606747D01*
X73511107Y-31592132D01*
X73532150Y-31579520D01*
X73554329Y-31569030D01*
X73577428Y-31560765D01*
X73601227Y-31554804D01*
X73625495Y-31551204D01*
X73649999Y-31550000D01*
X74300001Y-31550000D01*
X74324505Y-31551204D01*
X74324505Y-31551204D01*
G37*
D11*
X73975000Y-32250000D03*
D10*
G36*
X32349505Y-31551204D02*
G01*
X32373773Y-31554804D01*
X32397572Y-31560765D01*
X32420671Y-31569030D01*
X32442850Y-31579520D01*
X32463893Y-31592132D01*
X32483599Y-31606747D01*
X32501777Y-31623223D01*
X32518253Y-31641401D01*
X32532868Y-31661107D01*
X32545480Y-31682150D01*
X32555970Y-31704329D01*
X32564235Y-31727428D01*
X32570196Y-31751227D01*
X32573796Y-31775495D01*
X32575000Y-31799999D01*
X32575000Y-32700001D01*
X32573796Y-32724505D01*
X32570196Y-32748773D01*
X32564235Y-32772572D01*
X32555970Y-32795671D01*
X32545480Y-32817850D01*
X32532868Y-32838893D01*
X32518253Y-32858599D01*
X32501777Y-32876777D01*
X32483599Y-32893253D01*
X32463893Y-32907868D01*
X32442850Y-32920480D01*
X32420671Y-32930970D01*
X32397572Y-32939235D01*
X32373773Y-32945196D01*
X32349505Y-32948796D01*
X32325001Y-32950000D01*
X31674999Y-32950000D01*
X31650495Y-32948796D01*
X31626227Y-32945196D01*
X31602428Y-32939235D01*
X31579329Y-32930970D01*
X31557150Y-32920480D01*
X31536107Y-32907868D01*
X31516401Y-32893253D01*
X31498223Y-32876777D01*
X31481747Y-32858599D01*
X31467132Y-32838893D01*
X31454520Y-32817850D01*
X31444030Y-32795671D01*
X31435765Y-32772572D01*
X31429804Y-32748773D01*
X31426204Y-32724505D01*
X31425000Y-32700001D01*
X31425000Y-31799999D01*
X31426204Y-31775495D01*
X31429804Y-31751227D01*
X31435765Y-31727428D01*
X31444030Y-31704329D01*
X31454520Y-31682150D01*
X31467132Y-31661107D01*
X31481747Y-31641401D01*
X31498223Y-31623223D01*
X31516401Y-31606747D01*
X31536107Y-31592132D01*
X31557150Y-31579520D01*
X31579329Y-31569030D01*
X31602428Y-31560765D01*
X31626227Y-31554804D01*
X31650495Y-31551204D01*
X31674999Y-31550000D01*
X32325001Y-31550000D01*
X32349505Y-31551204D01*
X32349505Y-31551204D01*
G37*
D11*
X32000000Y-32250000D03*
D10*
G36*
X30299505Y-31551204D02*
G01*
X30323773Y-31554804D01*
X30347572Y-31560765D01*
X30370671Y-31569030D01*
X30392850Y-31579520D01*
X30413893Y-31592132D01*
X30433599Y-31606747D01*
X30451777Y-31623223D01*
X30468253Y-31641401D01*
X30482868Y-31661107D01*
X30495480Y-31682150D01*
X30505970Y-31704329D01*
X30514235Y-31727428D01*
X30520196Y-31751227D01*
X30523796Y-31775495D01*
X30525000Y-31799999D01*
X30525000Y-32700001D01*
X30523796Y-32724505D01*
X30520196Y-32748773D01*
X30514235Y-32772572D01*
X30505970Y-32795671D01*
X30495480Y-32817850D01*
X30482868Y-32838893D01*
X30468253Y-32858599D01*
X30451777Y-32876777D01*
X30433599Y-32893253D01*
X30413893Y-32907868D01*
X30392850Y-32920480D01*
X30370671Y-32930970D01*
X30347572Y-32939235D01*
X30323773Y-32945196D01*
X30299505Y-32948796D01*
X30275001Y-32950000D01*
X29624999Y-32950000D01*
X29600495Y-32948796D01*
X29576227Y-32945196D01*
X29552428Y-32939235D01*
X29529329Y-32930970D01*
X29507150Y-32920480D01*
X29486107Y-32907868D01*
X29466401Y-32893253D01*
X29448223Y-32876777D01*
X29431747Y-32858599D01*
X29417132Y-32838893D01*
X29404520Y-32817850D01*
X29394030Y-32795671D01*
X29385765Y-32772572D01*
X29379804Y-32748773D01*
X29376204Y-32724505D01*
X29375000Y-32700001D01*
X29375000Y-31799999D01*
X29376204Y-31775495D01*
X29379804Y-31751227D01*
X29385765Y-31727428D01*
X29394030Y-31704329D01*
X29404520Y-31682150D01*
X29417132Y-31661107D01*
X29431747Y-31641401D01*
X29448223Y-31623223D01*
X29466401Y-31606747D01*
X29486107Y-31592132D01*
X29507150Y-31579520D01*
X29529329Y-31569030D01*
X29552428Y-31560765D01*
X29576227Y-31554804D01*
X29600495Y-31551204D01*
X29624999Y-31550000D01*
X30275001Y-31550000D01*
X30299505Y-31551204D01*
X30299505Y-31551204D01*
G37*
D11*
X29950000Y-32250000D03*
D12*
X43750000Y-40710000D03*
D13*
X43750000Y-43250000D03*
D14*
X52750000Y-33500000D03*
D15*
X52750000Y-39500000D03*
X57450000Y-36500000D03*
D16*
X32000000Y-28540000D03*
X32000000Y-26000000D03*
X29460000Y-28540000D03*
D17*
X29460000Y-26000000D03*
X74000000Y-26000000D03*
D16*
X74000000Y-28540000D03*
X76540000Y-26000000D03*
X76540000Y-28540000D03*
D10*
G36*
X38974505Y-40401204D02*
G01*
X38998773Y-40404804D01*
X39022572Y-40410765D01*
X39045671Y-40419030D01*
X39067850Y-40429520D01*
X39088893Y-40442132D01*
X39108599Y-40456747D01*
X39126777Y-40473223D01*
X39143253Y-40491401D01*
X39157868Y-40511107D01*
X39170480Y-40532150D01*
X39180970Y-40554329D01*
X39189235Y-40577428D01*
X39195196Y-40601227D01*
X39198796Y-40625495D01*
X39200000Y-40649999D01*
X39200000Y-41300001D01*
X39198796Y-41324505D01*
X39195196Y-41348773D01*
X39189235Y-41372572D01*
X39180970Y-41395671D01*
X39170480Y-41417850D01*
X39157868Y-41438893D01*
X39143253Y-41458599D01*
X39126777Y-41476777D01*
X39108599Y-41493253D01*
X39088893Y-41507868D01*
X39067850Y-41520480D01*
X39045671Y-41530970D01*
X39022572Y-41539235D01*
X38998773Y-41545196D01*
X38974505Y-41548796D01*
X38950001Y-41550000D01*
X38049999Y-41550000D01*
X38025495Y-41548796D01*
X38001227Y-41545196D01*
X37977428Y-41539235D01*
X37954329Y-41530970D01*
X37932150Y-41520480D01*
X37911107Y-41507868D01*
X37891401Y-41493253D01*
X37873223Y-41476777D01*
X37856747Y-41458599D01*
X37842132Y-41438893D01*
X37829520Y-41417850D01*
X37819030Y-41395671D01*
X37810765Y-41372572D01*
X37804804Y-41348773D01*
X37801204Y-41324505D01*
X37800000Y-41300001D01*
X37800000Y-40649999D01*
X37801204Y-40625495D01*
X37804804Y-40601227D01*
X37810765Y-40577428D01*
X37819030Y-40554329D01*
X37829520Y-40532150D01*
X37842132Y-40511107D01*
X37856747Y-40491401D01*
X37873223Y-40473223D01*
X37891401Y-40456747D01*
X37911107Y-40442132D01*
X37932150Y-40429520D01*
X37954329Y-40419030D01*
X37977428Y-40410765D01*
X38001227Y-40404804D01*
X38025495Y-40401204D01*
X38049999Y-40400000D01*
X38950001Y-40400000D01*
X38974505Y-40401204D01*
X38974505Y-40401204D01*
G37*
D11*
X38500000Y-40975000D03*
D10*
G36*
X38974505Y-42451204D02*
G01*
X38998773Y-42454804D01*
X39022572Y-42460765D01*
X39045671Y-42469030D01*
X39067850Y-42479520D01*
X39088893Y-42492132D01*
X39108599Y-42506747D01*
X39126777Y-42523223D01*
X39143253Y-42541401D01*
X39157868Y-42561107D01*
X39170480Y-42582150D01*
X39180970Y-42604329D01*
X39189235Y-42627428D01*
X39195196Y-42651227D01*
X39198796Y-42675495D01*
X39200000Y-42699999D01*
X39200000Y-43350001D01*
X39198796Y-43374505D01*
X39195196Y-43398773D01*
X39189235Y-43422572D01*
X39180970Y-43445671D01*
X39170480Y-43467850D01*
X39157868Y-43488893D01*
X39143253Y-43508599D01*
X39126777Y-43526777D01*
X39108599Y-43543253D01*
X39088893Y-43557868D01*
X39067850Y-43570480D01*
X39045671Y-43580970D01*
X39022572Y-43589235D01*
X38998773Y-43595196D01*
X38974505Y-43598796D01*
X38950001Y-43600000D01*
X38049999Y-43600000D01*
X38025495Y-43598796D01*
X38001227Y-43595196D01*
X37977428Y-43589235D01*
X37954329Y-43580970D01*
X37932150Y-43570480D01*
X37911107Y-43557868D01*
X37891401Y-43543253D01*
X37873223Y-43526777D01*
X37856747Y-43508599D01*
X37842132Y-43488893D01*
X37829520Y-43467850D01*
X37819030Y-43445671D01*
X37810765Y-43422572D01*
X37804804Y-43398773D01*
X37801204Y-43374505D01*
X37800000Y-43350001D01*
X37800000Y-42699999D01*
X37801204Y-42675495D01*
X37804804Y-42651227D01*
X37810765Y-42627428D01*
X37819030Y-42604329D01*
X37829520Y-42582150D01*
X37842132Y-42561107D01*
X37856747Y-42541401D01*
X37873223Y-42523223D01*
X37891401Y-42506747D01*
X37911107Y-42492132D01*
X37932150Y-42479520D01*
X37954329Y-42469030D01*
X37977428Y-42460765D01*
X38001227Y-42454804D01*
X38025495Y-42451204D01*
X38049999Y-42450000D01*
X38950001Y-42450000D01*
X38974505Y-42451204D01*
X38974505Y-42451204D01*
G37*
D11*
X38500000Y-43025000D03*
D18*
X41650000Y-37550000D03*
X41650000Y-32950000D03*
X41650000Y-35250000D03*
D19*
X35350000Y-35250000D03*
X70650000Y-35250000D03*
D18*
X64350000Y-35250000D03*
X64350000Y-37550000D03*
X64350000Y-32950000D03*
D20*
X61000000Y-32250000D03*
D21*
X76540000Y-26000000D02*
X76540000Y-28540000D01*
X76016041Y-32008959D02*
X75775000Y-32250000D01*
X76016041Y-30749999D02*
X76016041Y-32008959D01*
X76540000Y-28540000D02*
X76540000Y-30226040D01*
X76540000Y-30226040D02*
X76016041Y-30749999D01*
X32000000Y-26000000D02*
X32000000Y-28540000D01*
X32000000Y-32250000D02*
X32000000Y-28540000D01*
X42725000Y-37550000D02*
X41650000Y-37550000D01*
X44000000Y-36275000D02*
X42725000Y-37550000D01*
X63050000Y-32950000D02*
X64350000Y-32950000D01*
X62000000Y-34225000D02*
X62000000Y-34000000D01*
X62000000Y-34000000D02*
X63050000Y-32950000D01*
X43510000Y-40710000D02*
X43750000Y-40710000D01*
X41650000Y-37550000D02*
X41650000Y-38850000D01*
X41650000Y-38850000D02*
X43510000Y-40710000D01*
X62250000Y-32250000D02*
X61000000Y-32250000D01*
X64350000Y-32950000D02*
X62950000Y-32950000D01*
X62950000Y-32950000D02*
X62250000Y-32250000D01*
X74000000Y-26000000D02*
X74000000Y-28540000D01*
X69142000Y-35250000D02*
X64350000Y-35250000D01*
X70650000Y-35250000D02*
X69142000Y-35250000D01*
X74000000Y-32225000D02*
X73975000Y-32250000D01*
X74000000Y-28540000D02*
X74000000Y-32225000D01*
X72350000Y-35250000D02*
X70650000Y-35250000D01*
X74000000Y-33600000D02*
X72350000Y-35250000D01*
X73975000Y-32250000D02*
X74000000Y-32275000D01*
X74000000Y-32275000D02*
X74000000Y-33600000D01*
X29460000Y-28540000D02*
X29460000Y-26000000D01*
X41650000Y-35250000D02*
X35350000Y-35250000D01*
X29460000Y-30170000D02*
X29460000Y-28540000D01*
X29950000Y-32250000D02*
X29950000Y-30660000D01*
X29950000Y-30660000D02*
X29460000Y-30170000D01*
X33842000Y-35250000D02*
X35350000Y-35250000D01*
X31650000Y-35250000D02*
X33842000Y-35250000D01*
X29950000Y-32250000D02*
X29950000Y-33550000D01*
X29950000Y-33550000D02*
X31650000Y-35250000D01*
X37175000Y-40975000D02*
X38500000Y-40975000D01*
X35350000Y-35250000D02*
X35350000Y-39150000D01*
X35350000Y-39150000D02*
X37175000Y-40975000D01*
X42750000Y-32950000D02*
X41650000Y-32950000D01*
X44000000Y-34225000D02*
X44000000Y-34200000D01*
X44000000Y-34200000D02*
X42750000Y-32950000D01*
X46175000Y-34225000D02*
X44000000Y-34225000D01*
X52750000Y-33500000D02*
X46900000Y-33500000D01*
X46900000Y-33500000D02*
X46175000Y-34225000D01*
X58300000Y-33500000D02*
X52750000Y-33500000D01*
X62000000Y-36275000D02*
X61075000Y-36275000D01*
X61075000Y-36275000D02*
X58300000Y-33500000D01*
X62000000Y-36700000D02*
X62000000Y-36275000D01*
X64350000Y-37550000D02*
X62850000Y-37550000D01*
X62850000Y-37550000D02*
X62000000Y-36700000D01*
X41150000Y-43250000D02*
X43750000Y-43250000D01*
X38500000Y-43025000D02*
X40925000Y-43025000D01*
X40925000Y-43025000D02*
X41150000Y-43250000D01*
M02*
