G04 #@! TF.GenerationSoftware,KiCad,Pcbnew,(5.1.2)-2*
G04 #@! TF.CreationDate,2019-09-13T01:35:51-05:00*
G04 #@! TF.ProjectId,breadboard_power,62726561-6462-46f6-9172-645f706f7765,rev?*
G04 #@! TF.SameCoordinates,Original*
G04 #@! TF.FileFunction,Legend,Bot*
G04 #@! TF.FilePolarity,Positive*
%FSLAX46Y46*%
G04 Gerber Fmt 4.6, Leading zero omitted, Abs format (unit mm)*
G04 Created by KiCad (PCBNEW (5.1.2)-2) date 2019-09-13 01:35:51*
%MOMM*%
%LPD*%
G04 APERTURE LIST*
%ADD10C,0.158750*%
%ADD11C,0.120000*%
%ADD12C,0.150000*%
%ADD13R,1.901600X1.901600*%
%ADD14C,1.901600*%
%ADD15R,2.701600X2.701600*%
%ADD16C,2.701600*%
%ADD17O,1.801600X1.801600*%
%ADD18R,1.801600X1.801600*%
G04 APERTURE END LIST*
D10*
X32115383Y-42993839D02*
X32115383Y-42485839D01*
X32115383Y-42630982D02*
X32079098Y-42558410D01*
X32042812Y-42522125D01*
X31970241Y-42485839D01*
X31897669Y-42485839D01*
X31353383Y-42957553D02*
X31425955Y-42993839D01*
X31571098Y-42993839D01*
X31643669Y-42957553D01*
X31679955Y-42884982D01*
X31679955Y-42594696D01*
X31643669Y-42522125D01*
X31571098Y-42485839D01*
X31425955Y-42485839D01*
X31353383Y-42522125D01*
X31317098Y-42594696D01*
X31317098Y-42667267D01*
X31679955Y-42739839D01*
X31063098Y-42485839D02*
X30881669Y-42993839D01*
X30700241Y-42485839D01*
X30010812Y-42993839D02*
X30446241Y-42993839D01*
X30228526Y-42993839D02*
X30228526Y-42231839D01*
X30301098Y-42340696D01*
X30373669Y-42413267D01*
X30446241Y-42449553D01*
X32151669Y-43606160D02*
X32115383Y-43569875D01*
X32042812Y-43533589D01*
X31861383Y-43533589D01*
X31788812Y-43569875D01*
X31752526Y-43606160D01*
X31716241Y-43678732D01*
X31716241Y-43751303D01*
X31752526Y-43860160D01*
X32187955Y-44295589D01*
X31716241Y-44295589D01*
X31244526Y-43533589D02*
X31171955Y-43533589D01*
X31099383Y-43569875D01*
X31063098Y-43606160D01*
X31026812Y-43678732D01*
X30990526Y-43823875D01*
X30990526Y-44005303D01*
X31026812Y-44150446D01*
X31063098Y-44223017D01*
X31099383Y-44259303D01*
X31171955Y-44295589D01*
X31244526Y-44295589D01*
X31317098Y-44259303D01*
X31353383Y-44223017D01*
X31389669Y-44150446D01*
X31425955Y-44005303D01*
X31425955Y-43823875D01*
X31389669Y-43678732D01*
X31353383Y-43606160D01*
X31317098Y-43569875D01*
X31244526Y-43533589D01*
X30264812Y-44295589D02*
X30700241Y-44295589D01*
X30482526Y-44295589D02*
X30482526Y-43533589D01*
X30555098Y-43642446D01*
X30627669Y-43715017D01*
X30700241Y-43751303D01*
X29901955Y-44295589D02*
X29756812Y-44295589D01*
X29684241Y-44259303D01*
X29647955Y-44223017D01*
X29575383Y-44114160D01*
X29539098Y-43969017D01*
X29539098Y-43678732D01*
X29575383Y-43606160D01*
X29611669Y-43569875D01*
X29684241Y-43533589D01*
X29829383Y-43533589D01*
X29901955Y-43569875D01*
X29938241Y-43606160D01*
X29974526Y-43678732D01*
X29974526Y-43860160D01*
X29938241Y-43932732D01*
X29901955Y-43969017D01*
X29829383Y-44005303D01*
X29684241Y-44005303D01*
X29611669Y-43969017D01*
X29575383Y-43932732D01*
X29539098Y-43860160D01*
D11*
X28130000Y-24670000D02*
X28130000Y-26000000D01*
X29460000Y-24670000D02*
X28130000Y-24670000D01*
X28130000Y-27270000D02*
X28130000Y-29870000D01*
X30730000Y-27270000D02*
X28130000Y-27270000D01*
X30730000Y-24670000D02*
X30730000Y-27270000D01*
X28130000Y-29870000D02*
X33330000Y-29870000D01*
X30730000Y-24670000D02*
X33330000Y-24670000D01*
X33330000Y-24670000D02*
X33330000Y-29870000D01*
X77870000Y-24670000D02*
X77870000Y-29870000D01*
X75270000Y-24670000D02*
X77870000Y-24670000D01*
X72670000Y-29870000D02*
X77870000Y-29870000D01*
X75270000Y-24670000D02*
X75270000Y-27270000D01*
X75270000Y-27270000D02*
X72670000Y-27270000D01*
X72670000Y-27270000D02*
X72670000Y-29870000D01*
X74000000Y-24670000D02*
X72670000Y-24670000D01*
X72670000Y-24670000D02*
X72670000Y-26000000D01*
D12*
X31133333Y-30652380D02*
X31133333Y-31366666D01*
X31180952Y-31509523D01*
X31276190Y-31604761D01*
X31419047Y-31652380D01*
X31514285Y-31652380D01*
X30704761Y-30747619D02*
X30657142Y-30700000D01*
X30561904Y-30652380D01*
X30323809Y-30652380D01*
X30228571Y-30700000D01*
X30180952Y-30747619D01*
X30133333Y-30842857D01*
X30133333Y-30938095D01*
X30180952Y-31080952D01*
X30752380Y-31652380D01*
X30133333Y-31652380D01*
X75433333Y-30652380D02*
X75433333Y-31366666D01*
X75480952Y-31509523D01*
X75576190Y-31604761D01*
X75719047Y-31652380D01*
X75814285Y-31652380D01*
X75052380Y-30652380D02*
X74433333Y-30652380D01*
X74766666Y-31033333D01*
X74623809Y-31033333D01*
X74528571Y-31080952D01*
X74480952Y-31128571D01*
X74433333Y-31223809D01*
X74433333Y-31461904D01*
X74480952Y-31557142D01*
X74528571Y-31604761D01*
X74623809Y-31652380D01*
X74909523Y-31652380D01*
X75004761Y-31604761D01*
X75052380Y-31557142D01*
%LPC*%
D13*
X43750000Y-40710000D03*
D14*
X43750000Y-43250000D03*
D15*
X52750000Y-33500000D03*
D16*
X52750000Y-39500000D03*
X57450000Y-36500000D03*
D17*
X32000000Y-28540000D03*
X32000000Y-26000000D03*
X29460000Y-28540000D03*
D18*
X29460000Y-26000000D03*
X74000000Y-26000000D03*
D17*
X74000000Y-28540000D03*
X76540000Y-26000000D03*
X76540000Y-28540000D03*
M02*
