G04 #@! TF.GenerationSoftware,KiCad,Pcbnew,(5.1.2)-2*
G04 #@! TF.CreationDate,2019-09-13T01:35:51-05:00*
G04 #@! TF.ProjectId,breadboard_power,62726561-6462-46f6-9172-645f706f7765,rev?*
G04 #@! TF.SameCoordinates,Original*
G04 #@! TF.FileFunction,Legend,Top*
G04 #@! TF.FilePolarity,Positive*
%FSLAX46Y46*%
G04 Gerber Fmt 4.6, Leading zero omitted, Abs format (unit mm)*
G04 Created by KiCad (PCBNEW (5.1.2)-2) date 2019-09-13 01:35:51*
%MOMM*%
%LPD*%
G04 APERTURE LIST*
%ADD10C,0.254000*%
%ADD11C,0.010000*%
%ADD12C,0.120000*%
%ADD13C,0.150000*%
%ADD14C,0.127000*%
%ADD15C,0.100000*%
%ADD16C,1.251600*%
%ADD17R,1.901600X1.901600*%
%ADD18C,1.901600*%
%ADD19R,2.701600X2.701600*%
%ADD20C,2.701600*%
%ADD21O,1.801600X1.801600*%
%ADD22R,1.801600X1.801600*%
%ADD23R,2.101600X1.601600*%
%ADD24R,2.101600X3.901600*%
G04 APERTURE END LIST*
D10*
X29472571Y-36787047D02*
X29472571Y-36012952D01*
X29859619Y-36400000D02*
X29085523Y-36400000D01*
X32187047Y-36327428D02*
X31412952Y-36327428D01*
X30406476Y-37843619D02*
X29922666Y-37843619D01*
X29874285Y-38327428D01*
X29922666Y-38279047D01*
X30019428Y-38230666D01*
X30261333Y-38230666D01*
X30358095Y-38279047D01*
X30406476Y-38327428D01*
X30454857Y-38424190D01*
X30454857Y-38666095D01*
X30406476Y-38762857D01*
X30358095Y-38811238D01*
X30261333Y-38859619D01*
X30019428Y-38859619D01*
X29922666Y-38811238D01*
X29874285Y-38762857D01*
X30745142Y-37843619D02*
X31083809Y-38859619D01*
X31422476Y-37843619D01*
X73700190Y-37043619D02*
X74329142Y-37043619D01*
X73990476Y-37430666D01*
X74135619Y-37430666D01*
X74232380Y-37479047D01*
X74280761Y-37527428D01*
X74329142Y-37624190D01*
X74329142Y-37866095D01*
X74280761Y-37962857D01*
X74232380Y-38011238D01*
X74135619Y-38059619D01*
X73845333Y-38059619D01*
X73748571Y-38011238D01*
X73700190Y-37962857D01*
X74764571Y-37962857D02*
X74812952Y-38011238D01*
X74764571Y-38059619D01*
X74716190Y-38011238D01*
X74764571Y-37962857D01*
X74764571Y-38059619D01*
X75151619Y-37043619D02*
X75780571Y-37043619D01*
X75441904Y-37430666D01*
X75587047Y-37430666D01*
X75683809Y-37479047D01*
X75732190Y-37527428D01*
X75780571Y-37624190D01*
X75780571Y-37866095D01*
X75732190Y-37962857D01*
X75683809Y-38011238D01*
X75587047Y-38059619D01*
X75296761Y-38059619D01*
X75200000Y-38011238D01*
X75151619Y-37962857D01*
X76070857Y-37043619D02*
X76409523Y-38059619D01*
X76748190Y-37043619D01*
X74072571Y-35987047D02*
X74072571Y-35212952D01*
X74459619Y-35600000D02*
X73685523Y-35600000D01*
X76787047Y-35527428D02*
X76012952Y-35527428D01*
D11*
G36*
X77597542Y-42842483D02*
G01*
X77901210Y-42925407D01*
X77708103Y-42976614D01*
X77332338Y-42998327D01*
X76632829Y-43135382D01*
X76313939Y-43516561D01*
X76298522Y-43569474D01*
X76061888Y-44028523D01*
X75808517Y-44036367D01*
X75686407Y-43591776D01*
X75686316Y-43574568D01*
X75921193Y-43105630D01*
X76536455Y-42833978D01*
X77398053Y-42810959D01*
X77597542Y-42842483D01*
X77597542Y-42842483D01*
G37*
X77597542Y-42842483D02*
X77901210Y-42925407D01*
X77708103Y-42976614D01*
X77332338Y-42998327D01*
X76632829Y-43135382D01*
X76313939Y-43516561D01*
X76298522Y-43569474D01*
X76061888Y-44028523D01*
X75808517Y-44036367D01*
X75686407Y-43591776D01*
X75686316Y-43574568D01*
X75921193Y-43105630D01*
X76536455Y-42833978D01*
X77398053Y-42810959D01*
X77597542Y-42842483D01*
G36*
X73236959Y-41296843D02*
G01*
X73188488Y-42105025D01*
X73053621Y-43038575D01*
X73027970Y-43168422D01*
X72889355Y-43785494D01*
X72816497Y-43908256D01*
X72780968Y-43568772D01*
X72776010Y-43452610D01*
X72745263Y-42667324D01*
X71952825Y-43426528D01*
X71396747Y-43894404D01*
X71024799Y-43997459D01*
X70766758Y-43859050D01*
X70266945Y-43671946D01*
X69838879Y-43818289D01*
X69337363Y-44060244D01*
X69075056Y-44059039D01*
X68912983Y-43925965D01*
X68769985Y-43538711D01*
X68742867Y-43190702D01*
X68774598Y-42805412D01*
X68917262Y-42925345D01*
X69034449Y-43121106D01*
X69270720Y-43447759D01*
X69523709Y-43402849D01*
X69852572Y-43124655D01*
X70261943Y-42801031D01*
X70518463Y-42851670D01*
X70750137Y-43137069D01*
X71015408Y-43437610D01*
X71285826Y-43442668D01*
X71741076Y-43130914D01*
X71906253Y-42999835D01*
X72523889Y-42306579D01*
X72946170Y-41483885D01*
X72962105Y-41430527D01*
X73224734Y-40494738D01*
X73236959Y-41296843D01*
X73236959Y-41296843D01*
G37*
X73236959Y-41296843D02*
X73188488Y-42105025D01*
X73053621Y-43038575D01*
X73027970Y-43168422D01*
X72889355Y-43785494D01*
X72816497Y-43908256D01*
X72780968Y-43568772D01*
X72776010Y-43452610D01*
X72745263Y-42667324D01*
X71952825Y-43426528D01*
X71396747Y-43894404D01*
X71024799Y-43997459D01*
X70766758Y-43859050D01*
X70266945Y-43671946D01*
X69838879Y-43818289D01*
X69337363Y-44060244D01*
X69075056Y-44059039D01*
X68912983Y-43925965D01*
X68769985Y-43538711D01*
X68742867Y-43190702D01*
X68774598Y-42805412D01*
X68917262Y-42925345D01*
X69034449Y-43121106D01*
X69270720Y-43447759D01*
X69523709Y-43402849D01*
X69852572Y-43124655D01*
X70261943Y-42801031D01*
X70518463Y-42851670D01*
X70750137Y-43137069D01*
X71015408Y-43437610D01*
X71285826Y-43442668D01*
X71741076Y-43130914D01*
X71906253Y-42999835D01*
X72523889Y-42306579D01*
X72946170Y-41483885D01*
X72962105Y-41430527D01*
X73224734Y-40494738D01*
X73236959Y-41296843D01*
G36*
X61159298Y-43925965D02*
G01*
X61122597Y-44084916D01*
X60981053Y-44104211D01*
X60760978Y-44006385D01*
X60802807Y-43925965D01*
X61120111Y-43893967D01*
X61159298Y-43925965D01*
X61159298Y-43925965D01*
G37*
X61159298Y-43925965D02*
X61122597Y-44084916D01*
X60981053Y-44104211D01*
X60760978Y-44006385D01*
X60802807Y-43925965D01*
X61120111Y-43893967D01*
X61159298Y-43925965D01*
G36*
X60120636Y-41242593D02*
G01*
X60050256Y-41675161D01*
X59997989Y-42265798D01*
X60232593Y-42538959D01*
X60363223Y-42582610D01*
X60658312Y-42698289D01*
X60478653Y-42824736D01*
X60245790Y-42903896D01*
X59778395Y-43185812D01*
X59644211Y-43451194D01*
X59467767Y-43893125D01*
X59376842Y-43970527D01*
X59153497Y-43903277D01*
X59109474Y-43681571D01*
X58911693Y-43161128D01*
X58641579Y-42872190D01*
X58335873Y-42600910D01*
X58504946Y-42516560D01*
X58749108Y-42508504D01*
X59285423Y-42274948D01*
X59604147Y-41697895D01*
X59880173Y-41078431D01*
X60073032Y-40925609D01*
X60120636Y-41242593D01*
X60120636Y-41242593D01*
G37*
X60120636Y-41242593D02*
X60050256Y-41675161D01*
X59997989Y-42265798D01*
X60232593Y-42538959D01*
X60363223Y-42582610D01*
X60658312Y-42698289D01*
X60478653Y-42824736D01*
X60245790Y-42903896D01*
X59778395Y-43185812D01*
X59644211Y-43451194D01*
X59467767Y-43893125D01*
X59376842Y-43970527D01*
X59153497Y-43903277D01*
X59109474Y-43681571D01*
X58911693Y-43161128D01*
X58641579Y-42872190D01*
X58335873Y-42600910D01*
X58504946Y-42516560D01*
X58749108Y-42508504D01*
X59285423Y-42274948D01*
X59604147Y-41697895D01*
X59880173Y-41078431D01*
X60073032Y-40925609D01*
X60120636Y-41242593D01*
G36*
X75136383Y-42891661D02*
G01*
X75413177Y-43232866D01*
X75221993Y-43502148D01*
X74851473Y-43569474D01*
X74465228Y-43628012D01*
X74542801Y-43877563D01*
X74616842Y-43970527D01*
X74782542Y-44294378D01*
X74553486Y-44331571D01*
X74015263Y-44082795D01*
X73626822Y-43686554D01*
X73547369Y-43427598D01*
X73754907Y-43123860D01*
X74438597Y-43123860D01*
X74475298Y-43282810D01*
X74616842Y-43302106D01*
X74836917Y-43204280D01*
X74795088Y-43123860D01*
X74477784Y-43091861D01*
X74438597Y-43123860D01*
X73754907Y-43123860D01*
X73774535Y-43095135D01*
X74295812Y-42861382D01*
X74870864Y-42807398D01*
X75136383Y-42891661D01*
X75136383Y-42891661D01*
G37*
X75136383Y-42891661D02*
X75413177Y-43232866D01*
X75221993Y-43502148D01*
X74851473Y-43569474D01*
X74465228Y-43628012D01*
X74542801Y-43877563D01*
X74616842Y-43970527D01*
X74782542Y-44294378D01*
X74553486Y-44331571D01*
X74015263Y-44082795D01*
X73626822Y-43686554D01*
X73547369Y-43427598D01*
X73754907Y-43123860D01*
X74438597Y-43123860D01*
X74475298Y-43282810D01*
X74616842Y-43302106D01*
X74836917Y-43204280D01*
X74795088Y-43123860D01*
X74477784Y-43091861D01*
X74438597Y-43123860D01*
X73754907Y-43123860D01*
X73774535Y-43095135D01*
X74295812Y-42861382D01*
X74870864Y-42807398D01*
X75136383Y-42891661D01*
G36*
X68269953Y-42754550D02*
G01*
X68467369Y-43284307D01*
X68239108Y-43877596D01*
X67669828Y-44236982D01*
X66932774Y-44275089D01*
X66662632Y-44194506D01*
X66352512Y-43845958D01*
X66382394Y-43502632D01*
X66660970Y-43502632D01*
X66761114Y-43775056D01*
X67222202Y-43820725D01*
X67777080Y-43674553D01*
X68144487Y-43403700D01*
X68200000Y-43255741D01*
X67991737Y-43083829D01*
X67517905Y-43085056D01*
X67004941Y-43223096D01*
X66679280Y-43461625D01*
X66660970Y-43502632D01*
X66382394Y-43502632D01*
X66396838Y-43336682D01*
X66752961Y-42864086D01*
X66979792Y-42726489D01*
X67737050Y-42550827D01*
X68269953Y-42754550D01*
X68269953Y-42754550D01*
G37*
X68269953Y-42754550D02*
X68467369Y-43284307D01*
X68239108Y-43877596D01*
X67669828Y-44236982D01*
X66932774Y-44275089D01*
X66662632Y-44194506D01*
X66352512Y-43845958D01*
X66382394Y-43502632D01*
X66660970Y-43502632D01*
X66761114Y-43775056D01*
X67222202Y-43820725D01*
X67777080Y-43674553D01*
X68144487Y-43403700D01*
X68200000Y-43255741D01*
X67991737Y-43083829D01*
X67517905Y-43085056D01*
X67004941Y-43223096D01*
X66679280Y-43461625D01*
X66660970Y-43502632D01*
X66382394Y-43502632D01*
X66396838Y-43336682D01*
X66752961Y-42864086D01*
X66979792Y-42726489D01*
X67737050Y-42550827D01*
X68269953Y-42754550D01*
G36*
X65865620Y-41214976D02*
G01*
X66480956Y-41390002D01*
X66808683Y-41696378D01*
X66809146Y-41697895D01*
X66838278Y-41953139D01*
X66592755Y-41780723D01*
X66575737Y-41764737D01*
X65923754Y-41449598D01*
X65261151Y-41632159D01*
X64873056Y-42024755D01*
X64519486Y-42627010D01*
X64567869Y-42937713D01*
X65046380Y-43047719D01*
X65192105Y-43053529D01*
X65655153Y-43088254D01*
X65624361Y-43182488D01*
X65412580Y-43274004D01*
X64912225Y-43636963D01*
X64744159Y-43903747D01*
X64581487Y-44183461D01*
X64301504Y-44099561D01*
X64055790Y-43919959D01*
X63726823Y-43566660D01*
X63855263Y-43382828D01*
X64146454Y-43042330D01*
X64189474Y-42804579D01*
X64416828Y-41987911D01*
X64999700Y-41409189D01*
X65789308Y-41209514D01*
X65865620Y-41214976D01*
X65865620Y-41214976D01*
G37*
X65865620Y-41214976D02*
X66480956Y-41390002D01*
X66808683Y-41696378D01*
X66809146Y-41697895D01*
X66838278Y-41953139D01*
X66592755Y-41780723D01*
X66575737Y-41764737D01*
X65923754Y-41449598D01*
X65261151Y-41632159D01*
X64873056Y-42024755D01*
X64519486Y-42627010D01*
X64567869Y-42937713D01*
X65046380Y-43047719D01*
X65192105Y-43053529D01*
X65655153Y-43088254D01*
X65624361Y-43182488D01*
X65412580Y-43274004D01*
X64912225Y-43636963D01*
X64744159Y-43903747D01*
X64581487Y-44183461D01*
X64301504Y-44099561D01*
X64055790Y-43919959D01*
X63726823Y-43566660D01*
X63855263Y-43382828D01*
X64146454Y-43042330D01*
X64189474Y-42804579D01*
X64416828Y-41987911D01*
X64999700Y-41409189D01*
X65789308Y-41209514D01*
X65865620Y-41214976D01*
D12*
X44710000Y-34988748D02*
X44710000Y-35511252D01*
X43290000Y-34988748D02*
X43290000Y-35511252D01*
X61290000Y-35511252D02*
X61290000Y-34988748D01*
X62710000Y-35511252D02*
X62710000Y-34988748D01*
X74738748Y-32960000D02*
X75261252Y-32960000D01*
X74738748Y-31540000D02*
X75261252Y-31540000D01*
X30713748Y-32960000D02*
X31236252Y-32960000D01*
X30713748Y-31540000D02*
X31236252Y-31540000D01*
X44828608Y-43652335D02*
G75*
G03X44985516Y-40420000I-1078608J1672335D01*
G01*
X42671392Y-43652335D02*
G75*
G02X42514484Y-40420000I1078608J1672335D01*
G01*
X44829837Y-43021130D02*
G75*
G03X44830000Y-40939039I-1079837J1041130D01*
G01*
X42670163Y-43021130D02*
G75*
G02X42670000Y-40939039I1079837J1041130D01*
G01*
X44986000Y-40420000D02*
X44830000Y-40420000D01*
X42670000Y-40420000D02*
X42514000Y-40420000D01*
X57350000Y-38300000D02*
X57350000Y-47300000D01*
X57350000Y-47300000D02*
X48150000Y-47300000D01*
X48150000Y-47300000D02*
X48150000Y-32700000D01*
X48150000Y-32700000D02*
X50950000Y-32700000D01*
X54550000Y-32700000D02*
X57350000Y-32700000D01*
X57350000Y-32700000D02*
X57350000Y-34700000D01*
X47910000Y-34200000D02*
X47910000Y-32460000D01*
X47910000Y-32460000D02*
X49650000Y-32460000D01*
X39210000Y-41738748D02*
X39210000Y-42261252D01*
X37790000Y-41738748D02*
X37790000Y-42261252D01*
X42600000Y-38660000D02*
X36590000Y-38660000D01*
X40350000Y-31840000D02*
X36590000Y-31840000D01*
X36590000Y-38660000D02*
X36590000Y-37400000D01*
X36590000Y-31840000D02*
X36590000Y-33100000D01*
X69410000Y-38660000D02*
X69410000Y-37400000D01*
X69410000Y-31840000D02*
X69410000Y-33100000D01*
X65650000Y-38660000D02*
X69410000Y-38660000D01*
X63400000Y-31840000D02*
X69410000Y-31840000D01*
D13*
X43894166Y-38026785D02*
X43863928Y-38057023D01*
X43773214Y-38087261D01*
X43712738Y-38087261D01*
X43622023Y-38057023D01*
X43561547Y-37996547D01*
X43531309Y-37936071D01*
X43501071Y-37815119D01*
X43501071Y-37724404D01*
X43531309Y-37603452D01*
X43561547Y-37542976D01*
X43622023Y-37482500D01*
X43712738Y-37452261D01*
X43773214Y-37452261D01*
X43863928Y-37482500D01*
X43894166Y-37512738D01*
X44498928Y-38087261D02*
X44136071Y-38087261D01*
X44317500Y-38087261D02*
X44317500Y-37452261D01*
X44257023Y-37542976D01*
X44196547Y-37603452D01*
X44136071Y-37633690D01*
X61694166Y-38026785D02*
X61663928Y-38057023D01*
X61573214Y-38087261D01*
X61512738Y-38087261D01*
X61422023Y-38057023D01*
X61361547Y-37996547D01*
X61331309Y-37936071D01*
X61301071Y-37815119D01*
X61301071Y-37724404D01*
X61331309Y-37603452D01*
X61361547Y-37542976D01*
X61422023Y-37482500D01*
X61512738Y-37452261D01*
X61573214Y-37452261D01*
X61663928Y-37482500D01*
X61694166Y-37512738D01*
X61936071Y-37512738D02*
X61966309Y-37482500D01*
X62026785Y-37452261D01*
X62177976Y-37452261D01*
X62238452Y-37482500D01*
X62268690Y-37512738D01*
X62298928Y-37573214D01*
X62298928Y-37633690D01*
X62268690Y-37724404D01*
X61905833Y-38087261D01*
X62298928Y-38087261D01*
X74894166Y-34026785D02*
X74863928Y-34057023D01*
X74773214Y-34087261D01*
X74712738Y-34087261D01*
X74622023Y-34057023D01*
X74561547Y-33996547D01*
X74531309Y-33936071D01*
X74501071Y-33815119D01*
X74501071Y-33724404D01*
X74531309Y-33603452D01*
X74561547Y-33542976D01*
X74622023Y-33482500D01*
X74712738Y-33452261D01*
X74773214Y-33452261D01*
X74863928Y-33482500D01*
X74894166Y-33512738D01*
X75105833Y-33452261D02*
X75498928Y-33452261D01*
X75287261Y-33694166D01*
X75377976Y-33694166D01*
X75438452Y-33724404D01*
X75468690Y-33754642D01*
X75498928Y-33815119D01*
X75498928Y-33966309D01*
X75468690Y-34026785D01*
X75438452Y-34057023D01*
X75377976Y-34087261D01*
X75196547Y-34087261D01*
X75136071Y-34057023D01*
X75105833Y-34026785D01*
X31894166Y-34026785D02*
X31863928Y-34057023D01*
X31773214Y-34087261D01*
X31712738Y-34087261D01*
X31622023Y-34057023D01*
X31561547Y-33996547D01*
X31531309Y-33936071D01*
X31501071Y-33815119D01*
X31501071Y-33724404D01*
X31531309Y-33603452D01*
X31561547Y-33542976D01*
X31622023Y-33482500D01*
X31712738Y-33452261D01*
X31773214Y-33452261D01*
X31863928Y-33482500D01*
X31894166Y-33512738D01*
X32438452Y-33663928D02*
X32438452Y-34087261D01*
X32287261Y-33422023D02*
X32136071Y-33875595D01*
X32529166Y-33875595D01*
X43331309Y-45287261D02*
X43331309Y-44652261D01*
X43482500Y-44652261D01*
X43573214Y-44682500D01*
X43633690Y-44742976D01*
X43663928Y-44803452D01*
X43694166Y-44924404D01*
X43694166Y-45015119D01*
X43663928Y-45136071D01*
X43633690Y-45196547D01*
X43573214Y-45257023D01*
X43482500Y-45287261D01*
X43331309Y-45287261D01*
X44298928Y-45287261D02*
X43936071Y-45287261D01*
X44117500Y-45287261D02*
X44117500Y-44652261D01*
X44057023Y-44742976D01*
X43996547Y-44803452D01*
X43936071Y-44833690D01*
X46788333Y-44452261D02*
X46788333Y-44905833D01*
X46758095Y-44996547D01*
X46697619Y-45057023D01*
X46606904Y-45087261D01*
X46546428Y-45087261D01*
X47423333Y-45087261D02*
X47060476Y-45087261D01*
X47241904Y-45087261D02*
X47241904Y-44452261D01*
X47181428Y-44542976D01*
X47120952Y-44603452D01*
X47060476Y-44633690D01*
D14*
X38494166Y-44687261D02*
X38282500Y-44384880D01*
X38131309Y-44687261D02*
X38131309Y-44052261D01*
X38373214Y-44052261D01*
X38433690Y-44082500D01*
X38463928Y-44112738D01*
X38494166Y-44173214D01*
X38494166Y-44263928D01*
X38463928Y-44324404D01*
X38433690Y-44354642D01*
X38373214Y-44384880D01*
X38131309Y-44384880D01*
X39098928Y-44687261D02*
X38736071Y-44687261D01*
X38917500Y-44687261D02*
X38917500Y-44052261D01*
X38857023Y-44142976D01*
X38796547Y-44203452D01*
X38736071Y-44233690D01*
D13*
X38516190Y-39052261D02*
X38516190Y-39566309D01*
X38546428Y-39626785D01*
X38576666Y-39657023D01*
X38637142Y-39687261D01*
X38758095Y-39687261D01*
X38818571Y-39657023D01*
X38848809Y-39626785D01*
X38879047Y-39566309D01*
X38879047Y-39052261D01*
X39514047Y-39687261D02*
X39151190Y-39687261D01*
X39332619Y-39687261D02*
X39332619Y-39052261D01*
X39272142Y-39142976D01*
X39211666Y-39203452D01*
X39151190Y-39233690D01*
X66916190Y-39252261D02*
X66916190Y-39766309D01*
X66946428Y-39826785D01*
X66976666Y-39857023D01*
X67037142Y-39887261D01*
X67158095Y-39887261D01*
X67218571Y-39857023D01*
X67248809Y-39826785D01*
X67279047Y-39766309D01*
X67279047Y-39252261D01*
X67551190Y-39312738D02*
X67581428Y-39282500D01*
X67641904Y-39252261D01*
X67793095Y-39252261D01*
X67853571Y-39282500D01*
X67883809Y-39312738D01*
X67914047Y-39373214D01*
X67914047Y-39433690D01*
X67883809Y-39524404D01*
X67520952Y-39887261D01*
X67914047Y-39887261D01*
%LPC*%
D15*
G36*
X44505383Y-33600510D02*
G01*
X44531795Y-33604428D01*
X44557696Y-33610916D01*
X44582837Y-33619911D01*
X44606974Y-33631328D01*
X44629877Y-33645055D01*
X44651324Y-33660961D01*
X44671108Y-33678892D01*
X44689039Y-33698676D01*
X44704945Y-33720123D01*
X44718672Y-33743026D01*
X44730089Y-33767163D01*
X44739084Y-33792304D01*
X44745572Y-33818205D01*
X44749490Y-33844617D01*
X44750800Y-33871286D01*
X44750800Y-34578714D01*
X44749490Y-34605383D01*
X44745572Y-34631795D01*
X44739084Y-34657696D01*
X44730089Y-34682837D01*
X44718672Y-34706974D01*
X44704945Y-34729877D01*
X44689039Y-34751324D01*
X44671108Y-34771108D01*
X44651324Y-34789039D01*
X44629877Y-34804945D01*
X44606974Y-34818672D01*
X44582837Y-34830089D01*
X44557696Y-34839084D01*
X44531795Y-34845572D01*
X44505383Y-34849490D01*
X44478714Y-34850800D01*
X43521286Y-34850800D01*
X43494617Y-34849490D01*
X43468205Y-34845572D01*
X43442304Y-34839084D01*
X43417163Y-34830089D01*
X43393026Y-34818672D01*
X43370123Y-34804945D01*
X43348676Y-34789039D01*
X43328892Y-34771108D01*
X43310961Y-34751324D01*
X43295055Y-34729877D01*
X43281328Y-34706974D01*
X43269911Y-34682837D01*
X43260916Y-34657696D01*
X43254428Y-34631795D01*
X43250510Y-34605383D01*
X43249200Y-34578714D01*
X43249200Y-33871286D01*
X43250510Y-33844617D01*
X43254428Y-33818205D01*
X43260916Y-33792304D01*
X43269911Y-33767163D01*
X43281328Y-33743026D01*
X43295055Y-33720123D01*
X43310961Y-33698676D01*
X43328892Y-33678892D01*
X43348676Y-33660961D01*
X43370123Y-33645055D01*
X43393026Y-33631328D01*
X43417163Y-33619911D01*
X43442304Y-33610916D01*
X43468205Y-33604428D01*
X43494617Y-33600510D01*
X43521286Y-33599200D01*
X44478714Y-33599200D01*
X44505383Y-33600510D01*
X44505383Y-33600510D01*
G37*
D16*
X44000000Y-34225000D03*
D15*
G36*
X44505383Y-35650510D02*
G01*
X44531795Y-35654428D01*
X44557696Y-35660916D01*
X44582837Y-35669911D01*
X44606974Y-35681328D01*
X44629877Y-35695055D01*
X44651324Y-35710961D01*
X44671108Y-35728892D01*
X44689039Y-35748676D01*
X44704945Y-35770123D01*
X44718672Y-35793026D01*
X44730089Y-35817163D01*
X44739084Y-35842304D01*
X44745572Y-35868205D01*
X44749490Y-35894617D01*
X44750800Y-35921286D01*
X44750800Y-36628714D01*
X44749490Y-36655383D01*
X44745572Y-36681795D01*
X44739084Y-36707696D01*
X44730089Y-36732837D01*
X44718672Y-36756974D01*
X44704945Y-36779877D01*
X44689039Y-36801324D01*
X44671108Y-36821108D01*
X44651324Y-36839039D01*
X44629877Y-36854945D01*
X44606974Y-36868672D01*
X44582837Y-36880089D01*
X44557696Y-36889084D01*
X44531795Y-36895572D01*
X44505383Y-36899490D01*
X44478714Y-36900800D01*
X43521286Y-36900800D01*
X43494617Y-36899490D01*
X43468205Y-36895572D01*
X43442304Y-36889084D01*
X43417163Y-36880089D01*
X43393026Y-36868672D01*
X43370123Y-36854945D01*
X43348676Y-36839039D01*
X43328892Y-36821108D01*
X43310961Y-36801324D01*
X43295055Y-36779877D01*
X43281328Y-36756974D01*
X43269911Y-36732837D01*
X43260916Y-36707696D01*
X43254428Y-36681795D01*
X43250510Y-36655383D01*
X43249200Y-36628714D01*
X43249200Y-35921286D01*
X43250510Y-35894617D01*
X43254428Y-35868205D01*
X43260916Y-35842304D01*
X43269911Y-35817163D01*
X43281328Y-35793026D01*
X43295055Y-35770123D01*
X43310961Y-35748676D01*
X43328892Y-35728892D01*
X43348676Y-35710961D01*
X43370123Y-35695055D01*
X43393026Y-35681328D01*
X43417163Y-35669911D01*
X43442304Y-35660916D01*
X43468205Y-35654428D01*
X43494617Y-35650510D01*
X43521286Y-35649200D01*
X44478714Y-35649200D01*
X44505383Y-35650510D01*
X44505383Y-35650510D01*
G37*
D16*
X44000000Y-36275000D03*
D15*
G36*
X62505383Y-35650510D02*
G01*
X62531795Y-35654428D01*
X62557696Y-35660916D01*
X62582837Y-35669911D01*
X62606974Y-35681328D01*
X62629877Y-35695055D01*
X62651324Y-35710961D01*
X62671108Y-35728892D01*
X62689039Y-35748676D01*
X62704945Y-35770123D01*
X62718672Y-35793026D01*
X62730089Y-35817163D01*
X62739084Y-35842304D01*
X62745572Y-35868205D01*
X62749490Y-35894617D01*
X62750800Y-35921286D01*
X62750800Y-36628714D01*
X62749490Y-36655383D01*
X62745572Y-36681795D01*
X62739084Y-36707696D01*
X62730089Y-36732837D01*
X62718672Y-36756974D01*
X62704945Y-36779877D01*
X62689039Y-36801324D01*
X62671108Y-36821108D01*
X62651324Y-36839039D01*
X62629877Y-36854945D01*
X62606974Y-36868672D01*
X62582837Y-36880089D01*
X62557696Y-36889084D01*
X62531795Y-36895572D01*
X62505383Y-36899490D01*
X62478714Y-36900800D01*
X61521286Y-36900800D01*
X61494617Y-36899490D01*
X61468205Y-36895572D01*
X61442304Y-36889084D01*
X61417163Y-36880089D01*
X61393026Y-36868672D01*
X61370123Y-36854945D01*
X61348676Y-36839039D01*
X61328892Y-36821108D01*
X61310961Y-36801324D01*
X61295055Y-36779877D01*
X61281328Y-36756974D01*
X61269911Y-36732837D01*
X61260916Y-36707696D01*
X61254428Y-36681795D01*
X61250510Y-36655383D01*
X61249200Y-36628714D01*
X61249200Y-35921286D01*
X61250510Y-35894617D01*
X61254428Y-35868205D01*
X61260916Y-35842304D01*
X61269911Y-35817163D01*
X61281328Y-35793026D01*
X61295055Y-35770123D01*
X61310961Y-35748676D01*
X61328892Y-35728892D01*
X61348676Y-35710961D01*
X61370123Y-35695055D01*
X61393026Y-35681328D01*
X61417163Y-35669911D01*
X61442304Y-35660916D01*
X61468205Y-35654428D01*
X61494617Y-35650510D01*
X61521286Y-35649200D01*
X62478714Y-35649200D01*
X62505383Y-35650510D01*
X62505383Y-35650510D01*
G37*
D16*
X62000000Y-36275000D03*
D15*
G36*
X62505383Y-33600510D02*
G01*
X62531795Y-33604428D01*
X62557696Y-33610916D01*
X62582837Y-33619911D01*
X62606974Y-33631328D01*
X62629877Y-33645055D01*
X62651324Y-33660961D01*
X62671108Y-33678892D01*
X62689039Y-33698676D01*
X62704945Y-33720123D01*
X62718672Y-33743026D01*
X62730089Y-33767163D01*
X62739084Y-33792304D01*
X62745572Y-33818205D01*
X62749490Y-33844617D01*
X62750800Y-33871286D01*
X62750800Y-34578714D01*
X62749490Y-34605383D01*
X62745572Y-34631795D01*
X62739084Y-34657696D01*
X62730089Y-34682837D01*
X62718672Y-34706974D01*
X62704945Y-34729877D01*
X62689039Y-34751324D01*
X62671108Y-34771108D01*
X62651324Y-34789039D01*
X62629877Y-34804945D01*
X62606974Y-34818672D01*
X62582837Y-34830089D01*
X62557696Y-34839084D01*
X62531795Y-34845572D01*
X62505383Y-34849490D01*
X62478714Y-34850800D01*
X61521286Y-34850800D01*
X61494617Y-34849490D01*
X61468205Y-34845572D01*
X61442304Y-34839084D01*
X61417163Y-34830089D01*
X61393026Y-34818672D01*
X61370123Y-34804945D01*
X61348676Y-34789039D01*
X61328892Y-34771108D01*
X61310961Y-34751324D01*
X61295055Y-34729877D01*
X61281328Y-34706974D01*
X61269911Y-34682837D01*
X61260916Y-34657696D01*
X61254428Y-34631795D01*
X61250510Y-34605383D01*
X61249200Y-34578714D01*
X61249200Y-33871286D01*
X61250510Y-33844617D01*
X61254428Y-33818205D01*
X61260916Y-33792304D01*
X61269911Y-33767163D01*
X61281328Y-33743026D01*
X61295055Y-33720123D01*
X61310961Y-33698676D01*
X61328892Y-33678892D01*
X61348676Y-33660961D01*
X61370123Y-33645055D01*
X61393026Y-33631328D01*
X61417163Y-33619911D01*
X61442304Y-33610916D01*
X61468205Y-33604428D01*
X61494617Y-33600510D01*
X61521286Y-33599200D01*
X62478714Y-33599200D01*
X62505383Y-33600510D01*
X62505383Y-33600510D01*
G37*
D16*
X62000000Y-34225000D03*
D15*
G36*
X76405383Y-31500510D02*
G01*
X76431795Y-31504428D01*
X76457696Y-31510916D01*
X76482837Y-31519911D01*
X76506974Y-31531328D01*
X76529877Y-31545055D01*
X76551324Y-31560961D01*
X76571108Y-31578892D01*
X76589039Y-31598676D01*
X76604945Y-31620123D01*
X76618672Y-31643026D01*
X76630089Y-31667163D01*
X76639084Y-31692304D01*
X76645572Y-31718205D01*
X76649490Y-31744617D01*
X76650800Y-31771286D01*
X76650800Y-32728714D01*
X76649490Y-32755383D01*
X76645572Y-32781795D01*
X76639084Y-32807696D01*
X76630089Y-32832837D01*
X76618672Y-32856974D01*
X76604945Y-32879877D01*
X76589039Y-32901324D01*
X76571108Y-32921108D01*
X76551324Y-32939039D01*
X76529877Y-32954945D01*
X76506974Y-32968672D01*
X76482837Y-32980089D01*
X76457696Y-32989084D01*
X76431795Y-32995572D01*
X76405383Y-32999490D01*
X76378714Y-33000800D01*
X75671286Y-33000800D01*
X75644617Y-32999490D01*
X75618205Y-32995572D01*
X75592304Y-32989084D01*
X75567163Y-32980089D01*
X75543026Y-32968672D01*
X75520123Y-32954945D01*
X75498676Y-32939039D01*
X75478892Y-32921108D01*
X75460961Y-32901324D01*
X75445055Y-32879877D01*
X75431328Y-32856974D01*
X75419911Y-32832837D01*
X75410916Y-32807696D01*
X75404428Y-32781795D01*
X75400510Y-32755383D01*
X75399200Y-32728714D01*
X75399200Y-31771286D01*
X75400510Y-31744617D01*
X75404428Y-31718205D01*
X75410916Y-31692304D01*
X75419911Y-31667163D01*
X75431328Y-31643026D01*
X75445055Y-31620123D01*
X75460961Y-31598676D01*
X75478892Y-31578892D01*
X75498676Y-31560961D01*
X75520123Y-31545055D01*
X75543026Y-31531328D01*
X75567163Y-31519911D01*
X75592304Y-31510916D01*
X75618205Y-31504428D01*
X75644617Y-31500510D01*
X75671286Y-31499200D01*
X76378714Y-31499200D01*
X76405383Y-31500510D01*
X76405383Y-31500510D01*
G37*
D16*
X76025000Y-32250000D03*
D15*
G36*
X74355383Y-31500510D02*
G01*
X74381795Y-31504428D01*
X74407696Y-31510916D01*
X74432837Y-31519911D01*
X74456974Y-31531328D01*
X74479877Y-31545055D01*
X74501324Y-31560961D01*
X74521108Y-31578892D01*
X74539039Y-31598676D01*
X74554945Y-31620123D01*
X74568672Y-31643026D01*
X74580089Y-31667163D01*
X74589084Y-31692304D01*
X74595572Y-31718205D01*
X74599490Y-31744617D01*
X74600800Y-31771286D01*
X74600800Y-32728714D01*
X74599490Y-32755383D01*
X74595572Y-32781795D01*
X74589084Y-32807696D01*
X74580089Y-32832837D01*
X74568672Y-32856974D01*
X74554945Y-32879877D01*
X74539039Y-32901324D01*
X74521108Y-32921108D01*
X74501324Y-32939039D01*
X74479877Y-32954945D01*
X74456974Y-32968672D01*
X74432837Y-32980089D01*
X74407696Y-32989084D01*
X74381795Y-32995572D01*
X74355383Y-32999490D01*
X74328714Y-33000800D01*
X73621286Y-33000800D01*
X73594617Y-32999490D01*
X73568205Y-32995572D01*
X73542304Y-32989084D01*
X73517163Y-32980089D01*
X73493026Y-32968672D01*
X73470123Y-32954945D01*
X73448676Y-32939039D01*
X73428892Y-32921108D01*
X73410961Y-32901324D01*
X73395055Y-32879877D01*
X73381328Y-32856974D01*
X73369911Y-32832837D01*
X73360916Y-32807696D01*
X73354428Y-32781795D01*
X73350510Y-32755383D01*
X73349200Y-32728714D01*
X73349200Y-31771286D01*
X73350510Y-31744617D01*
X73354428Y-31718205D01*
X73360916Y-31692304D01*
X73369911Y-31667163D01*
X73381328Y-31643026D01*
X73395055Y-31620123D01*
X73410961Y-31598676D01*
X73428892Y-31578892D01*
X73448676Y-31560961D01*
X73470123Y-31545055D01*
X73493026Y-31531328D01*
X73517163Y-31519911D01*
X73542304Y-31510916D01*
X73568205Y-31504428D01*
X73594617Y-31500510D01*
X73621286Y-31499200D01*
X74328714Y-31499200D01*
X74355383Y-31500510D01*
X74355383Y-31500510D01*
G37*
D16*
X73975000Y-32250000D03*
D15*
G36*
X32380383Y-31500510D02*
G01*
X32406795Y-31504428D01*
X32432696Y-31510916D01*
X32457837Y-31519911D01*
X32481974Y-31531328D01*
X32504877Y-31545055D01*
X32526324Y-31560961D01*
X32546108Y-31578892D01*
X32564039Y-31598676D01*
X32579945Y-31620123D01*
X32593672Y-31643026D01*
X32605089Y-31667163D01*
X32614084Y-31692304D01*
X32620572Y-31718205D01*
X32624490Y-31744617D01*
X32625800Y-31771286D01*
X32625800Y-32728714D01*
X32624490Y-32755383D01*
X32620572Y-32781795D01*
X32614084Y-32807696D01*
X32605089Y-32832837D01*
X32593672Y-32856974D01*
X32579945Y-32879877D01*
X32564039Y-32901324D01*
X32546108Y-32921108D01*
X32526324Y-32939039D01*
X32504877Y-32954945D01*
X32481974Y-32968672D01*
X32457837Y-32980089D01*
X32432696Y-32989084D01*
X32406795Y-32995572D01*
X32380383Y-32999490D01*
X32353714Y-33000800D01*
X31646286Y-33000800D01*
X31619617Y-32999490D01*
X31593205Y-32995572D01*
X31567304Y-32989084D01*
X31542163Y-32980089D01*
X31518026Y-32968672D01*
X31495123Y-32954945D01*
X31473676Y-32939039D01*
X31453892Y-32921108D01*
X31435961Y-32901324D01*
X31420055Y-32879877D01*
X31406328Y-32856974D01*
X31394911Y-32832837D01*
X31385916Y-32807696D01*
X31379428Y-32781795D01*
X31375510Y-32755383D01*
X31374200Y-32728714D01*
X31374200Y-31771286D01*
X31375510Y-31744617D01*
X31379428Y-31718205D01*
X31385916Y-31692304D01*
X31394911Y-31667163D01*
X31406328Y-31643026D01*
X31420055Y-31620123D01*
X31435961Y-31598676D01*
X31453892Y-31578892D01*
X31473676Y-31560961D01*
X31495123Y-31545055D01*
X31518026Y-31531328D01*
X31542163Y-31519911D01*
X31567304Y-31510916D01*
X31593205Y-31504428D01*
X31619617Y-31500510D01*
X31646286Y-31499200D01*
X32353714Y-31499200D01*
X32380383Y-31500510D01*
X32380383Y-31500510D01*
G37*
D16*
X32000000Y-32250000D03*
D15*
G36*
X30330383Y-31500510D02*
G01*
X30356795Y-31504428D01*
X30382696Y-31510916D01*
X30407837Y-31519911D01*
X30431974Y-31531328D01*
X30454877Y-31545055D01*
X30476324Y-31560961D01*
X30496108Y-31578892D01*
X30514039Y-31598676D01*
X30529945Y-31620123D01*
X30543672Y-31643026D01*
X30555089Y-31667163D01*
X30564084Y-31692304D01*
X30570572Y-31718205D01*
X30574490Y-31744617D01*
X30575800Y-31771286D01*
X30575800Y-32728714D01*
X30574490Y-32755383D01*
X30570572Y-32781795D01*
X30564084Y-32807696D01*
X30555089Y-32832837D01*
X30543672Y-32856974D01*
X30529945Y-32879877D01*
X30514039Y-32901324D01*
X30496108Y-32921108D01*
X30476324Y-32939039D01*
X30454877Y-32954945D01*
X30431974Y-32968672D01*
X30407837Y-32980089D01*
X30382696Y-32989084D01*
X30356795Y-32995572D01*
X30330383Y-32999490D01*
X30303714Y-33000800D01*
X29596286Y-33000800D01*
X29569617Y-32999490D01*
X29543205Y-32995572D01*
X29517304Y-32989084D01*
X29492163Y-32980089D01*
X29468026Y-32968672D01*
X29445123Y-32954945D01*
X29423676Y-32939039D01*
X29403892Y-32921108D01*
X29385961Y-32901324D01*
X29370055Y-32879877D01*
X29356328Y-32856974D01*
X29344911Y-32832837D01*
X29335916Y-32807696D01*
X29329428Y-32781795D01*
X29325510Y-32755383D01*
X29324200Y-32728714D01*
X29324200Y-31771286D01*
X29325510Y-31744617D01*
X29329428Y-31718205D01*
X29335916Y-31692304D01*
X29344911Y-31667163D01*
X29356328Y-31643026D01*
X29370055Y-31620123D01*
X29385961Y-31598676D01*
X29403892Y-31578892D01*
X29423676Y-31560961D01*
X29445123Y-31545055D01*
X29468026Y-31531328D01*
X29492163Y-31519911D01*
X29517304Y-31510916D01*
X29543205Y-31504428D01*
X29569617Y-31500510D01*
X29596286Y-31499200D01*
X30303714Y-31499200D01*
X30330383Y-31500510D01*
X30330383Y-31500510D01*
G37*
D16*
X29950000Y-32250000D03*
D17*
X43750000Y-40710000D03*
D18*
X43750000Y-43250000D03*
D19*
X52750000Y-33500000D03*
D20*
X52750000Y-39500000D03*
X57450000Y-36500000D03*
D21*
X32000000Y-28540000D03*
X32000000Y-26000000D03*
X29460000Y-28540000D03*
D22*
X29460000Y-26000000D03*
X74000000Y-26000000D03*
D21*
X74000000Y-28540000D03*
X76540000Y-26000000D03*
X76540000Y-28540000D03*
D15*
G36*
X39005383Y-40350510D02*
G01*
X39031795Y-40354428D01*
X39057696Y-40360916D01*
X39082837Y-40369911D01*
X39106974Y-40381328D01*
X39129877Y-40395055D01*
X39151324Y-40410961D01*
X39171108Y-40428892D01*
X39189039Y-40448676D01*
X39204945Y-40470123D01*
X39218672Y-40493026D01*
X39230089Y-40517163D01*
X39239084Y-40542304D01*
X39245572Y-40568205D01*
X39249490Y-40594617D01*
X39250800Y-40621286D01*
X39250800Y-41328714D01*
X39249490Y-41355383D01*
X39245572Y-41381795D01*
X39239084Y-41407696D01*
X39230089Y-41432837D01*
X39218672Y-41456974D01*
X39204945Y-41479877D01*
X39189039Y-41501324D01*
X39171108Y-41521108D01*
X39151324Y-41539039D01*
X39129877Y-41554945D01*
X39106974Y-41568672D01*
X39082837Y-41580089D01*
X39057696Y-41589084D01*
X39031795Y-41595572D01*
X39005383Y-41599490D01*
X38978714Y-41600800D01*
X38021286Y-41600800D01*
X37994617Y-41599490D01*
X37968205Y-41595572D01*
X37942304Y-41589084D01*
X37917163Y-41580089D01*
X37893026Y-41568672D01*
X37870123Y-41554945D01*
X37848676Y-41539039D01*
X37828892Y-41521108D01*
X37810961Y-41501324D01*
X37795055Y-41479877D01*
X37781328Y-41456974D01*
X37769911Y-41432837D01*
X37760916Y-41407696D01*
X37754428Y-41381795D01*
X37750510Y-41355383D01*
X37749200Y-41328714D01*
X37749200Y-40621286D01*
X37750510Y-40594617D01*
X37754428Y-40568205D01*
X37760916Y-40542304D01*
X37769911Y-40517163D01*
X37781328Y-40493026D01*
X37795055Y-40470123D01*
X37810961Y-40448676D01*
X37828892Y-40428892D01*
X37848676Y-40410961D01*
X37870123Y-40395055D01*
X37893026Y-40381328D01*
X37917163Y-40369911D01*
X37942304Y-40360916D01*
X37968205Y-40354428D01*
X37994617Y-40350510D01*
X38021286Y-40349200D01*
X38978714Y-40349200D01*
X39005383Y-40350510D01*
X39005383Y-40350510D01*
G37*
D16*
X38500000Y-40975000D03*
D15*
G36*
X39005383Y-42400510D02*
G01*
X39031795Y-42404428D01*
X39057696Y-42410916D01*
X39082837Y-42419911D01*
X39106974Y-42431328D01*
X39129877Y-42445055D01*
X39151324Y-42460961D01*
X39171108Y-42478892D01*
X39189039Y-42498676D01*
X39204945Y-42520123D01*
X39218672Y-42543026D01*
X39230089Y-42567163D01*
X39239084Y-42592304D01*
X39245572Y-42618205D01*
X39249490Y-42644617D01*
X39250800Y-42671286D01*
X39250800Y-43378714D01*
X39249490Y-43405383D01*
X39245572Y-43431795D01*
X39239084Y-43457696D01*
X39230089Y-43482837D01*
X39218672Y-43506974D01*
X39204945Y-43529877D01*
X39189039Y-43551324D01*
X39171108Y-43571108D01*
X39151324Y-43589039D01*
X39129877Y-43604945D01*
X39106974Y-43618672D01*
X39082837Y-43630089D01*
X39057696Y-43639084D01*
X39031795Y-43645572D01*
X39005383Y-43649490D01*
X38978714Y-43650800D01*
X38021286Y-43650800D01*
X37994617Y-43649490D01*
X37968205Y-43645572D01*
X37942304Y-43639084D01*
X37917163Y-43630089D01*
X37893026Y-43618672D01*
X37870123Y-43604945D01*
X37848676Y-43589039D01*
X37828892Y-43571108D01*
X37810961Y-43551324D01*
X37795055Y-43529877D01*
X37781328Y-43506974D01*
X37769911Y-43482837D01*
X37760916Y-43457696D01*
X37754428Y-43431795D01*
X37750510Y-43405383D01*
X37749200Y-43378714D01*
X37749200Y-42671286D01*
X37750510Y-42644617D01*
X37754428Y-42618205D01*
X37760916Y-42592304D01*
X37769911Y-42567163D01*
X37781328Y-42543026D01*
X37795055Y-42520123D01*
X37810961Y-42498676D01*
X37828892Y-42478892D01*
X37848676Y-42460961D01*
X37870123Y-42445055D01*
X37893026Y-42431328D01*
X37917163Y-42419911D01*
X37942304Y-42410916D01*
X37968205Y-42404428D01*
X37994617Y-42400510D01*
X38021286Y-42399200D01*
X38978714Y-42399200D01*
X39005383Y-42400510D01*
X39005383Y-42400510D01*
G37*
D16*
X38500000Y-43025000D03*
D23*
X41650000Y-37550000D03*
X41650000Y-32950000D03*
X41650000Y-35250000D03*
D24*
X35350000Y-35250000D03*
X70650000Y-35250000D03*
D23*
X64350000Y-35250000D03*
X64350000Y-37550000D03*
X64350000Y-32950000D03*
M02*
